<svg xmlns="http://www.w3.org/2000/svg" width="32" height="32" viewBox="0 0 32 32" fill="none">
<path d="M22.2303 10.1635C21.0902 9.62113 19.8559 9.22748 18.5702 9.00004C18.5589 8.99967 18.5477 9.00183 18.5373 9.00637C18.527 9.0109 18.5177 9.0177 18.5102 9.02628C18.3559 9.31496 18.1759 9.69111 18.0559 9.97978C16.6921 9.76984 15.3052 9.76984 13.9415 9.97978C13.8215 9.68236 13.6415 9.31496 13.4786 9.02628C13.47 9.00879 13.4443 9.00004 13.4186 9.00004C12.1329 9.22748 10.9071 9.62113 9.7585 10.1635C9.74993 10.1635 9.74136 10.1722 9.73279 10.181C7.40129 13.7413 6.75842 17.2054 7.07557 20.6345C7.07557 20.652 7.08414 20.6695 7.10129 20.6782C8.64419 21.8329 10.1271 22.5327 11.5928 22.9964C11.6186 23.0051 11.6443 22.9964 11.6528 22.9789C11.9957 22.4978 12.3043 21.9904 12.57 21.4568C12.5872 21.4218 12.57 21.3868 12.5357 21.378C12.0471 21.1856 11.5843 20.9582 11.13 20.6957C11.0957 20.6782 11.0957 20.6257 11.1214 20.5995C11.2157 20.5295 11.31 20.4508 11.4043 20.3808C11.4214 20.3633 11.4471 20.3633 11.4643 20.3721C14.4129 21.7455 17.593 21.7455 20.5074 20.3721C20.5245 20.3633 20.5502 20.3633 20.5674 20.3808C20.6617 20.4595 20.7559 20.5295 20.8502 20.6083C20.8845 20.6345 20.8845 20.687 20.8417 20.7045C20.3959 20.9757 19.9245 21.1943 19.4359 21.3868C19.4016 21.3955 19.3931 21.4393 19.4016 21.4655C19.6759 21.9991 19.9845 22.5065 20.3188 22.9876C20.3445 22.9964 20.3702 23.0051 20.3959 22.9964C21.8703 22.5327 23.3532 21.8329 24.8961 20.6782C24.9132 20.6695 24.9218 20.652 24.9218 20.6345C25.2989 16.6718 24.296 13.2339 22.2646 10.181C22.256 10.1722 22.2474 10.1635 22.2303 10.1635ZM13.0157 18.5438C12.1329 18.5438 11.3957 17.7128 11.3957 16.6893C11.3957 15.6658 12.1157 14.8348 13.0157 14.8348C13.9243 14.8348 14.6444 15.6745 14.6358 16.6893C14.6358 17.7128 13.9158 18.5438 13.0157 18.5438ZM18.9902 18.5438C18.1073 18.5438 17.3701 17.7128 17.3701 16.6893C17.3701 15.6658 18.0902 14.8348 18.9902 14.8348C19.8988 14.8348 20.6188 15.6745 20.6102 16.6893C20.6102 17.7128 19.8988 18.5438 18.9902 18.5438Z" fill="white"/>
</svg>