<svg xmlns="http://www.w3.org/2000/svg" width="32" height="32" viewBox="0 0 32 32" fill="none">
<path d="M22.008 11.0631C21.8834 10.9968 21.7621 10.9241 21.6445 10.8452C21.3029 10.6128 20.9897 10.339 20.7117 10.0296C20.0151 9.2097 19.755 8.378 19.6599 7.79624H19.6632C19.5836 7.31242 19.6164 7 19.6221 7H16.4511V19.6174C16.4511 19.7862 16.4511 19.9543 16.4446 20.1197C16.4446 20.14 16.4421 20.1586 16.4413 20.1814C16.4413 20.1898 16.4413 20.2 16.4388 20.2093V20.2169C16.4055 20.6694 16.2647 21.1067 16.0286 21.4901C15.7925 21.8735 15.4685 22.1913 15.0851 22.4156C14.6851 22.6498 14.2326 22.7726 13.7724 22.7719C12.2956 22.7719 11.0978 21.5324 11.0978 20.0015C11.0978 18.4699 12.2956 17.2303 13.7724 17.2303C14.0522 17.2303 14.3303 17.2759 14.5961 17.3654L14.6002 14.042C13.7929 13.9348 12.9728 14.001 12.1916 14.2365C11.4104 14.4719 10.6852 14.8714 10.0616 15.4099C9.51503 15.8984 9.05553 16.4813 8.70374 17.1324C8.57001 17.3696 8.06462 18.3246 8.0039 19.8732C7.96534 20.7513 8.22214 21.6632 8.34439 22.039V22.0474C8.42069 22.2687 8.71933 23.0252 9.20503 23.6627C9.5967 24.1744 10.0595 24.6239 10.5784 24.9968V24.9884L10.5858 24.9968C12.12 26.0691 13.8225 25.9991 13.8225 25.9991C14.117 25.9864 15.104 25.9991 16.2247 25.4528C17.4677 24.8465 18.1749 23.9439 18.1749 23.9439C18.627 23.4044 18.9866 22.7897 19.2382 22.126C19.5253 21.3491 19.6205 20.4187 19.6205 20.0471V13.3522C19.6591 13.3758 20.1718 13.7245 20.1718 13.7245C20.1718 13.7245 20.9102 14.2117 22.0613 14.5284C22.8867 14.7538 24 14.8019 24 14.8019V11.5621C23.6103 11.606 22.8186 11.4794 22.0072 11.0639" fill="white"/>
</svg>