<svg xmlns="http://www.w3.org/2000/svg" width="32" height="32" viewBox="0 0 32 32" fill="none">
<path d="M24.6243 11.8745C24.5219 11.5115 24.321 11.1805 24.0417 10.9146C23.7625 10.6487 23.4147 10.4572 23.0333 10.3592C21.629 10 16 10 16 10C16 10 10.371 10 8.96674 10.3573C8.58509 10.4549 8.23715 10.6463 7.95787 10.9123C7.67859 11.1783 7.4778 11.5095 7.37567 11.8726C7 13.2102 7 16 7 16C7 16 7 18.7898 7.37567 20.1255C7.58259 20.8631 8.1933 21.4439 8.96674 21.6408C10.371 22 16 22 16 22C16 22 21.629 22 23.0333 21.6408C23.8087 21.4439 24.4174 20.8631 24.6243 20.1255C25 18.7898 25 16 25 16C25 16 25 13.2102 24.6243 11.8745ZM14.2121 18.5605V13.4395L18.8728 15.9809L14.2121 18.5605Z" fill="white"/>
</svg>