<svg width="46" height="24" viewBox="0 0 46 24" fill="none" xmlns="http://www.w3.org/2000/svg">
<path d="M34.8017 10.9799C34.8017 17.3974 32.4545 21.1227 32.4545 21.1227C39.3983 24.8155 45.9998 18.2344 45.9998 11.817C45.9998 5.39948 41.9881 -2.27775 30.7671 1.79204C30.7671 1.34893 34.8017 4.56246 34.8017 10.9799Z" fill="url(#paint0_linear_1_1105)"/>
<path d="M43.7016 9.15803C44.8263 15.608 42.1857 18.0206 42.1857 18.0206C43.3593 17.7745 45.1197 14.6233 45.1197 11.5214C45.1197 5.10394 40.1808 -0.443187 34.1172 1.57553C34.3617 1.57553 41.7456 2.21563 43.7016 9.15803Z" fill="white" fill-opacity="0.6"/>
<path d="M35.7311 10.9305C35.7311 16.2339 33.335 20.2363 33.335 20.2363C33.7751 20.2363 42.1859 18.1191 41.7947 11.7142C41.7947 6.41086 36.709 3.34807 34.6064 4.08664C34.6064 3.72046 35.7311 5.6272 35.7311 10.9305Z" fill="#2540A8"/>
<path d="M33.566 10.9904C33.566 16.2937 32.0039 21.0474 32.0039 21.0474C32.444 21.0474 39.6296 20.3347 39.6296 11.774C39.6296 6.47069 35.2907 3.20028 33.188 3.93885C33.188 3.57268 33.566 5.687 33.566 10.9904Z" fill="#5470DB"/>
<path d="M11.1981 10.9799C11.1981 17.3974 13.5454 21.1227 13.5454 21.1227C6.60151 24.8155 0 18.2344 0 11.817C0 5.39948 4.01177 -2.27775 15.2327 1.79204C15.2327 1.34893 11.1981 4.56246 11.1981 10.9799Z" fill="url(#paint1_linear_1_1105)"/>
<path d="M2.29848 9.15803C1.17378 15.608 3.81437 18.0206 3.81437 18.0206C2.64078 17.7745 0.880371 14.6233 0.880371 11.5214C0.880371 5.10394 5.81929 -0.443187 11.8829 1.57553C11.6385 1.57553 4.25449 2.21563 2.29848 9.15803Z" fill="white" fill-opacity="0.6"/>
<path d="M10.269 10.9305C10.269 16.2339 12.6651 20.2363 12.6651 20.2363C12.225 20.2363 3.81417 18.1191 4.20537 11.7142C4.20537 6.41086 9.291 3.34807 11.3937 4.08664C11.3937 3.72046 10.269 5.6272 10.269 10.9305Z" fill="#2540A8"/>
<path d="M12.434 10.9904C12.434 16.2937 13.9961 21.0474 13.9961 21.0474C13.556 21.0474 6.37036 20.3347 6.37036 11.774C6.37036 6.47069 10.7093 3.20028 12.812 3.93885C12.812 3.57268 12.434 5.687 12.434 10.9904Z" fill="#5470DB"/>
<path d="M37.1016 11.9849C37.1016 15.9634 34.055 23.9514 23.1658 23.9514C12.2766 23.9514 9.59204 16.6925 9.59204 11.9849C9.59204 5.6067 14.2071 -0.376516 23.1658 0.0185327C31.4006 -0.224666 37.1016 5.37608 37.1016 11.9849Z" fill="#130C28"/>
<path d="M37.1016 11.9849C37.1016 14.9917 32.215 24.7714 23.1658 23.9514C14.1166 23.1313 9.59204 16.6925 9.59204 11.9849C9.59204 5.6067 14.2071 -0.376516 23.1658 0.0185327C31.4006 -0.224666 37.1016 5.37608 37.1016 11.9849Z" fill="url(#paint2_linear_1_1105)"/>
<path d="M13.1802 15.8803C10.5216 13.773 10.5418 9.08547 12.4446 6.39472C14.7877 3.39764 19.0066 2.91961 21.6653 5.02683C22.2864 5.5191 22.7715 6.05193 23.1345 6.61498C23.4975 6.05193 23.9826 5.5191 24.6037 5.02683C27.2623 2.91961 31.4814 3.39764 33.8244 6.39472C35.7272 9.08547 35.7475 13.773 33.0888 15.8803C30.1467 18.4025 26.8159 16.8745 24.5234 13.7159C24.2561 13.2925 23.1661 13.3514 23.1661 13.3514C23.1661 13.3514 22.1062 13.2925 21.8388 13.7159C19.9687 16.8138 16.1223 18.4025 13.1802 15.8803Z" fill="#9FADE1"/>
<path d="M24.1312 14.9612C24.1312 15.5273 23.6721 15.5079 23.1057 15.5079C22.5392 15.5079 22.0801 15.5273 22.0801 14.9612C22.0801 14.3951 23.1057 13.8679 23.1057 13.8679C23.1057 13.8679 24.1312 14.3951 24.1312 14.9612Z" fill="#17161B"/>
<path d="M17.5555 15.5079C19.6546 15.5079 21.3562 13.7946 21.3562 11.6811C21.3562 9.56758 19.6546 7.85425 17.5555 7.85425C15.4565 7.85425 13.7549 9.56758 13.7549 11.6811C13.7549 13.7946 15.4565 15.5079 17.5555 15.5079Z" fill="#D9D9D9" fill-opacity="0.5"/>
<path d="M22.1102 12.9262C21.1449 15.3863 18.0409 17.4481 15.4935 16.574C12.5482 15.6901 11.5697 12.5373 12.5482 9.6461C13.8151 6.85191 16.017 5.06783 19.037 6.10404C21.5843 6.97807 23.0887 10.035 22.1102 12.9262Z" fill="#F1F1F1"/>
<path d="M33.4079 7.90737C34.9281 10.0649 34.8802 13.8696 32.6754 15.6171C30.2329 17.7054 27.0086 16.8675 25.1323 14.4675C23.5038 11.8685 23.2666 8.99735 25.8804 6.92558C28.0852 5.17806 31.5315 5.50725 33.4079 7.90737Z" fill="#F1F1F1"/>
<path d="M28.7162 15.5079C30.8152 15.5079 32.5168 13.7946 32.5168 11.6811C32.5168 9.56758 30.8152 7.85425 28.7162 7.85425C26.6171 7.85425 24.9155 9.56758 24.9155 11.6811C24.9155 13.7946 26.6171 15.5079 28.7162 15.5079Z" fill="url(#paint3_linear_1_1105)"/>
<path d="M17.5555 15.5079C19.6546 15.5079 21.3562 13.7946 21.3562 11.6811C21.3562 9.56758 19.6546 7.85425 17.5555 7.85425C15.4565 7.85425 13.7549 9.56758 13.7549 11.6811C13.7549 13.7946 15.4565 15.5079 17.5555 15.5079Z" fill="url(#paint4_linear_1_1105)"/>
<path d="M25.8805 18.3021C25.8805 18.4698 24.6246 19.5474 23.0753 19.5474C21.526 19.5474 20.27 18.4698 20.27 18.3021C20.27 18.1343 21.526 19.1829 23.0753 19.1829C24.6246 19.1829 25.8805 18.1343 25.8805 18.3021Z" fill="#4C70A3"/>
<path d="M27.7507 10.6483C28.3838 10.6483 28.897 10.1316 28.897 9.49421C28.897 8.85681 28.3838 8.34009 27.7507 8.34009C27.1177 8.34009 26.6045 8.85681 26.6045 9.49421C26.6045 10.1316 27.1177 10.6483 27.7507 10.6483Z" fill="#F1F1F1"/>
<path d="M18.581 10.6483C19.2141 10.6483 19.7273 10.1316 19.7273 9.49421C19.7273 8.85681 19.2141 8.34009 18.581 8.34009C17.948 8.34009 17.4348 8.85681 17.4348 9.49421C17.4348 10.1316 17.948 10.6483 18.581 10.6483Z" fill="#F1F1F1"/>
<defs>
<linearGradient id="paint0_linear_1_1105" x1="45.9543" y1="4.09442" x2="30.7105" y2="18.3404" gradientUnits="userSpaceOnUse">
<stop stop-color="#C0CCF7"/>
<stop offset="1" stop-color="#F7F9FF"/>
</linearGradient>
<linearGradient id="paint1_linear_1_1105" x1="15.1872" y1="4.09442" x2="-0.0566143" y2="18.3404" gradientUnits="userSpaceOnUse">
<stop stop-color="#C0CCF7"/>
<stop offset="1" stop-color="#F7F9FF"/>
</linearGradient>
<linearGradient id="paint2_linear_1_1105" x1="28.5461" y1="-5.36495" x2="22.1696" y2="25.497" gradientUnits="userSpaceOnUse">
<stop offset="0.456624" stop-color="#C0CCF7"/>
<stop offset="1" stop-color="#627EE4"/>
</linearGradient>
<linearGradient id="paint3_linear_1_1105" x1="28.7162" y1="7.85425" x2="28.7162" y2="15.5079" gradientUnits="userSpaceOnUse">
<stop stop-color="#071D6D"/>
<stop offset="1" stop-color="#576CDA"/>
</linearGradient>
<linearGradient id="paint4_linear_1_1105" x1="17.5555" y1="7.85425" x2="17.5555" y2="15.5079" gradientUnits="userSpaceOnUse">
<stop stop-color="#071D6D"/>
<stop offset="1" stop-color="#576CDA"/>
</linearGradient>
</defs>
</svg>
