<svg width="53" height="44" viewBox="0 0 53 44" fill="none" xmlns="http://www.w3.org/2000/svg">
<g clip-path="url(#clip0_235_1004)">
<path d="M40.0715 12.7053C40.0715 20.1311 37.3689 24.4418 37.3689 24.4418C45.3641 28.7148 52.9652 21.0997 52.9652 13.6739C52.9652 6.24802 48.346 -2.6355 35.426 2.07376C35.426 1.56102 40.0715 5.27948 40.0715 12.7053Z" fill="url(#paint0_linear_235_1004)"/>
<path d="M50.3189 10.5966C51.6139 18.06 48.5735 20.8517 48.5735 20.8517C49.9247 20.5668 51.9517 16.9206 51.9517 13.3313C51.9517 5.90547 46.265 -0.513246 39.2832 1.82266C39.5647 1.82266 48.0667 2.56333 50.3189 10.5966Z" fill="white" fill-opacity="0.6"/>
<path d="M41.1412 12.648C41.1412 18.7847 38.3823 23.416 38.3823 23.416C38.8891 23.416 48.5735 20.9661 48.123 13.5549C48.123 7.41819 42.2673 3.87416 39.8463 4.72878C39.8463 4.30507 41.1412 6.51141 41.1412 12.648Z" fill="#2540A8"/>
<path d="M38.6485 12.7169C38.6485 18.8535 36.8499 24.3542 36.8499 24.3542C37.3566 24.3542 45.6303 23.5295 45.6303 13.6237C45.6303 7.48709 40.6344 3.70282 38.2133 4.55744C38.2133 4.13372 38.6485 6.58026 38.6485 12.7169Z" fill="#5470DB"/>
<path d="M12.8937 12.7053C12.8937 20.1311 15.5964 24.4418 15.5964 24.4418C7.60109 28.7148 0 21.0997 0 13.6739C0 6.24802 4.61922 -2.6355 17.5392 2.07376C17.5392 1.56102 12.8937 5.27948 12.8937 12.7053Z" fill="url(#paint1_linear_235_1004)"/>
<path d="M2.64632 10.5966C1.35132 18.06 4.39174 20.8517 4.39174 20.8517C3.04046 20.5668 1.01349 16.9206 1.01349 13.3313C1.01349 5.90547 6.70025 -0.513246 13.682 1.82266C13.4005 1.82266 4.89851 2.56333 2.64632 10.5966Z" fill="white" fill-opacity="0.6"/>
<path d="M11.8239 12.648C11.8239 18.7847 14.5829 23.416 14.5829 23.416C14.0761 23.416 4.39176 20.9661 4.8422 13.5549C4.8422 7.41819 10.6979 3.87416 13.1189 4.72878C13.1189 4.30507 11.8239 6.51141 11.8239 12.648Z" fill="#2540A8"/>
<path d="M14.3167 12.7169C14.3167 18.8535 16.1153 24.3542 16.1153 24.3542C15.6085 24.3542 7.3349 23.5295 7.3349 13.6237C7.3349 7.48709 12.3308 3.70282 14.7519 4.55744C14.7519 4.13372 14.3167 6.58026 14.3167 12.7169Z" fill="#5470DB"/>
<path d="M18.6507 34.3035C18.3172 31.3889 19.8543 27.3451 20.2136 26.9585C22.1601 24.8641 27.1946 24.885 27.1946 24.885C27.1946 24.885 32.1097 24.7101 33.2378 26.9585C34.384 29.2428 34.8969 31.1895 34.8702 34.0224C34.8395 37.2837 32.6696 41.8868 31.6749 43.0543C30.8067 44.0735 28.8111 44.2141 27.9239 43.4761C27.0368 42.738 26.8624 41.752 27.1946 40.6646C28.3754 36.7987 31.4665 31.9138 30.1467 28.6805C29.3161 26.6456 27.5419 26.5719 26.3957 26.5719C24.902 26.5719 22.8879 27.9707 22.8879 30.1917C22.8879 34.3035 27.0378 39.0178 26.1874 42.3163C25.979 43.1246 25.0413 43.8626 24.4508 43.8626C23.8604 43.8626 21.9502 43.8626 21.325 42.5975C19.8144 39.5407 19.0327 37.6422 18.6507 34.3035Z" fill="url(#paint2_linear_235_1004)"/>
<path d="M18.6507 34.3035C18.3172 31.3889 19.8543 27.3451 20.2136 26.9585C22.1601 24.8641 27.1946 24.885 27.1946 24.885C27.1946 24.885 32.1097 24.7101 33.2378 26.9585C34.384 29.2428 34.8969 31.1895 34.8702 34.0224C34.8395 37.2837 32.6696 41.8868 31.6749 43.0543C30.8067 44.0735 28.8111 44.2141 27.9239 43.4761C27.0368 42.738 26.8624 41.752 27.1946 40.6646C28.3754 36.7987 31.4665 31.9138 30.1467 28.6805C29.3161 26.6456 27.5419 26.5719 26.3957 26.5719C24.902 26.5719 22.8879 27.9707 22.8879 30.1917C22.8879 34.3035 27.0378 39.0178 26.1874 42.3163C25.979 43.1246 25.0413 43.8626 24.4508 43.8626C23.8604 43.8626 21.9502 43.8626 21.325 42.5975C19.8144 39.5407 19.0327 37.6422 18.6507 34.3035Z" fill="url(#paint3_linear_235_1004)"/>
<path d="M31.7444 30.8613C31.7444 33.4087 28.429 39.751 26.8989 39.751C25.3688 39.751 21.9515 33.9286 21.6964 31.5372C21.4414 29.1458 23.2179 25.9746 26.5419 25.9746C29.8658 25.9746 31.7444 28.6779 31.7444 30.8613Z" fill="url(#paint4_linear_235_1004)"/>
<path d="M30.1468 31.5271C30.1468 33.2492 27.8892 37.5367 26.8473 37.5367C25.8054 37.5367 23.4784 33.6006 23.3047 31.984C23.131 30.3674 24.3407 28.2236 26.6042 28.2236C28.8675 28.2236 30.1468 30.0511 30.1468 31.5271Z" fill="white"/>
<path d="M27.0793 42.1467C26.8109 41.1507 27.6585 39.3662 27.6585 39.3662C27.6585 39.3662 27.5014 40.2419 27.6107 41.0163C27.7497 42.0003 28.5485 42.7032 28.5485 42.7032C28.5485 42.7032 28.0275 42.5626 28.0275 42.7032C28.0275 42.7677 28.2469 43.0572 28.6179 43.3006C29.0555 43.5878 29.824 43.9015 29.73 43.9332C29.6258 43.9684 28.7054 43.9418 28.2377 43.7077C27.5253 43.3511 27.2876 42.9199 27.0793 42.1467Z" fill="#C0CCF7"/>
<path d="M26.4073 42.0606C26.6757 41.0647 25.9208 39.2197 25.9208 39.2197C25.9208 39.2197 25.9852 40.1558 25.8758 40.9302C25.7369 41.9143 24.9381 42.6171 24.9381 42.6171C24.9381 42.6171 25.4591 42.4766 25.4591 42.6171C25.4591 42.6817 25.2396 42.9712 24.8686 43.2146C24.4311 43.5017 23.6626 43.8155 23.7565 43.8472C23.8607 43.8823 24.7812 43.8557 25.2488 43.6216C25.9613 43.265 26.1989 42.8338 26.4073 42.0606Z" fill="#C0CCF7"/>
<path d="M37.1278 33.2841C36.2429 33.1387 34.8702 33.6004 34.8702 34.0573C34.8703 36.5076 33.4462 39.61 32.7517 41.4726C32.5227 42.0864 33.4249 42.4427 34.0715 42.4918C35.4605 42.5972 37.3361 42.8049 37.9961 42.4918C38.8449 42.0891 38.9076 41.3028 39.2464 40.4183C39.6906 39.2586 39.7919 36.5437 39.2464 35.463C38.7009 34.3824 38.3115 33.4787 37.1278 33.2841Z" fill="url(#paint5_linear_235_1004)"/>
<path d="M37.1278 33.2841C36.2429 33.1387 34.8702 33.6004 34.8702 34.0573C34.8703 36.5076 33.4462 39.61 32.7517 41.4726C32.5227 42.0864 33.4249 42.4427 34.0715 42.4918C35.4605 42.5972 37.3361 42.8049 37.9961 42.4918C38.8449 42.0891 38.9076 41.3028 39.2464 40.4183C39.6906 39.2586 39.7919 36.5437 39.2464 35.463C38.7009 34.3824 38.3115 33.4787 37.1278 33.2841Z" fill="url(#paint6_linear_235_1004)"/>
<path d="M36.3288 37.2905C35.3218 37.2867 34.0018 38.4151 34.0018 38.4151C34.0018 38.4151 34.4212 37.0581 34.5923 36.1659C34.7563 35.3102 34.8701 33.9518 34.8701 33.9518C34.8701 33.9518 35.1648 33.8822 35.2869 34.1978C35.6439 35.1203 34.7431 37.1499 34.9396 37.1499C35.0438 37.1499 35.6166 36.7148 36.1552 36.6579C36.7478 36.5953 37.1183 36.6993 37.6486 36.9742C38.2377 37.2795 38.532 37.5899 38.8642 38.1691C39.312 38.9497 39.4199 40.4534 39.2115 40.4534C39.2115 40.4534 38.8989 39.5045 38.8642 39.364C38.7784 39.0163 38.6558 38.4151 37.8917 37.7474C37.4109 37.3272 36.9641 37.2929 36.3288 37.2905Z" fill="#FFEDED" fill-opacity="0.7"/>
<path d="M34.2798 42.7001C34.2798 42.7001 32.3 42.3135 32.3695 41.9972C32.42 41.7671 33.8977 38.9429 33.8282 39.2592C33.6472 40.0834 33.3073 40.9812 33.5157 41.4381C33.5969 41.6162 34.0898 39.684 34.9744 39.1538C35.6152 38.7696 36.3947 38.6892 36.7804 38.7672C37.3014 38.8726 37.475 39.5052 37.475 39.5052C37.475 39.5052 38.3718 39.3946 38.6212 39.7863C38.7697 40.0197 38.7254 40.4892 38.7254 40.4892C38.7254 40.4892 39.3744 40.4598 39.4895 40.7704C39.6978 41.3327 39.3821 41.9047 38.899 42.2464C38.0485 42.8481 34.2756 42.6564 34.2798 42.7001Z" fill="#C0CCF7"/>
<path d="M37.3655 40.0402C37.269 40.3958 36.9667 40.622 36.6904 40.5452C36.414 40.4685 36.2324 40.0363 36.3288 39.6807C36.4253 39.325 36.7631 39.1806 37.0395 39.2573C37.316 39.3341 37.4619 39.6845 37.3655 40.0402Z" fill="#17161B"/>
<path d="M38.6211 40.4534C38.5186 40.8315 38.0256 41.0782 37.7185 40.9929C37.4114 40.9077 37.2456 40.532 37.3481 40.154C37.4505 39.7759 37.7826 39.5385 38.0897 39.6238C38.3968 39.709 38.7236 40.0753 38.6211 40.4534Z" fill="#17161B"/>
<path d="M39.4028 41.3176C39.3258 41.6016 39.0873 41.72 38.8295 41.6483C38.5717 41.5768 38.3705 41.2998 38.4475 41.0157C38.5245 40.7317 38.8176 40.6021 39.0755 40.6737C39.3332 40.7452 39.4798 41.0335 39.4028 41.3176Z" fill="#17161B"/>
<path d="M37.0235 39.9617C37.1769 39.9617 37.3013 39.8358 37.3013 39.6806C37.3013 39.5253 37.1769 39.3994 37.0235 39.3994C36.87 39.3994 36.7456 39.5253 36.7456 39.6806C36.7456 39.8358 36.87 39.9617 37.0235 39.9617Z" fill="#D9D9D9" fill-opacity="0.6"/>
<path d="M38.0654 40.5945C38.2188 40.5945 38.3432 40.4687 38.3432 40.3134C38.3432 40.1581 38.2188 40.0322 38.0654 40.0322C37.9119 40.0322 37.7875 40.1581 37.7875 40.3134C37.7875 40.4687 37.9119 40.5945 38.0654 40.5945Z" fill="#D9D9D9" fill-opacity="0.6"/>
<path d="M38.9684 41.2967C39.1219 41.2967 39.2463 41.1708 39.2463 41.0155C39.2463 40.8603 39.1219 40.7344 38.9684 40.7344C38.8149 40.7344 38.6906 40.8603 38.6906 41.0155C38.6906 41.1708 38.8149 41.2967 38.9684 41.2967Z" fill="#D9D9D9" fill-opacity="0.6"/>
<path d="M36.2941 40.6998C36.6762 40.6295 37.0929 40.6295 37.1971 40.3835C37.2567 40.243 37.344 40.8753 37.6487 41.0161C37.9212 41.1421 38.4128 40.8053 38.4128 40.9458C38.4128 41.0864 38.4432 41.5535 38.7254 41.6487C39.1421 41.7893 39.2151 41.4431 39.3505 41.6487C39.4199 41.7541 39.0943 42.1649 38.7254 42.3516C38.1002 42.6679 37.6303 42.6082 36.8498 42.6679C35.8621 42.7434 34.6617 42.8085 34.1061 42.6679C33.9233 42.6216 33.7973 42.5078 33.6893 42.3516C33.5423 42.1388 33.6536 41.923 33.7573 41.7217L33.7587 41.719C34.1755 40.9107 35.206 40.9 36.2941 40.6998Z" fill="#5470DB"/>
<path d="M35.3911 35.1121C35.2522 35.3933 35.1607 36.0766 35.009 36.6936C34.9685 36.8583 34.9048 37.1153 34.9048 37.1153C34.9048 37.1153 35.1555 36.9994 35.3216 36.9396L35.3285 36.9371C35.9066 36.7291 36.2769 36.5959 36.8845 36.6936C37.4836 36.7899 37.8238 36.9849 38.2738 37.3965C38.7261 37.81 39.1073 38.7319 39.1073 38.7319C39.1073 38.7319 39.0727 37.798 38.9337 37.2207C38.7523 36.4679 38.5864 35.9907 38.1696 35.3933C37.7805 34.8356 37.3508 34.5121 36.6761 34.5147C36.1239 34.5168 35.6381 34.6123 35.3911 35.1121Z" fill="#9FADE1"/>
<path d="M16.3832 33.2841C17.2682 33.1387 18.6408 33.6004 18.6408 34.0573C18.6408 36.5076 20.0648 39.61 20.7594 41.4726C20.9883 42.0864 20.0861 42.4427 19.4396 42.4918C18.0505 42.5972 16.1748 42.8049 15.5149 42.4918C14.6662 42.0891 14.6034 41.3028 14.2646 40.4183C13.8203 39.2586 13.7192 36.5437 14.2646 35.463C14.81 34.3824 15.1996 33.4787 16.3832 33.2841Z" fill="url(#paint7_linear_235_1004)"/>
<path d="M16.3832 33.2841C17.2682 33.1387 18.6408 33.6004 18.6408 34.0573C18.6408 36.5076 20.0648 39.61 20.7594 41.4726C20.9883 42.0864 20.0861 42.4427 19.4396 42.4918C18.0505 42.5972 16.1748 42.8049 15.5149 42.4918C14.6662 42.0891 14.6034 41.3028 14.2646 40.4183C13.8203 39.2586 13.7192 36.5437 14.2646 35.463C14.81 34.3824 15.1996 33.4787 16.3832 33.2841Z" fill="url(#paint8_linear_235_1004)"/>
<path d="M17.1822 37.2905C18.1893 37.2867 19.5092 38.4151 19.5092 38.4151C19.5092 38.4151 19.0898 37.0581 18.9188 36.1659C18.7548 35.3102 18.6409 33.9518 18.6409 33.9518C18.6409 33.9518 18.3463 33.8822 18.2242 34.1978C17.8672 35.1203 18.768 37.1499 18.5715 37.1499C18.4673 37.1499 17.8945 36.7148 17.3559 36.6579C16.7632 36.5953 16.3928 36.6993 15.8624 36.9742C15.2734 37.2795 14.9791 37.5899 14.6468 38.1691C14.1991 38.9497 14.0911 40.4534 14.2995 40.4534C14.2995 40.4534 14.6121 39.5045 14.6468 39.364C14.7328 39.0163 14.8552 38.4151 15.6193 37.7474C16.1001 37.3272 16.5469 37.2929 17.1822 37.2905Z" fill="#FFEDED" fill-opacity="0.7"/>
<path d="M19.2312 42.7001C19.2312 42.7001 21.2111 42.3135 21.1416 41.9972C21.0911 41.7671 19.6134 38.9429 19.6829 39.2592C19.8639 40.0834 20.2038 40.9812 19.9954 41.4381C19.9142 41.6162 19.4213 39.684 18.5367 39.1538C17.8959 38.7696 17.1164 38.6892 16.7307 38.7672C16.2097 38.8726 16.0361 39.5052 16.0361 39.5052C16.0361 39.5052 15.1392 39.3946 14.8899 39.7863C14.7414 40.0197 14.7857 40.4892 14.7857 40.4892C14.7857 40.4892 14.1367 40.4598 14.0216 40.7704C13.8133 41.3327 14.1289 41.9047 14.6121 42.2464C15.4626 42.8481 19.2354 42.6564 19.2312 42.7001Z" fill="#C0CCF7"/>
<path d="M16.1456 40.0402C16.242 40.3958 16.5442 40.622 16.8206 40.5452C17.097 40.4685 17.2786 40.0363 17.1822 39.6807C17.0858 39.325 16.7478 39.1806 16.4714 39.2573C16.1951 39.3341 16.0491 39.6845 16.1456 40.0402Z" fill="#17161B"/>
<path d="M14.8899 40.4534C14.9925 40.8315 15.4855 41.0782 15.7926 40.9929C16.0997 40.9077 16.2656 40.532 16.163 40.154C16.0605 39.7759 15.7285 39.5385 15.4213 39.6238C15.1142 39.709 14.7874 40.0753 14.8899 40.4534Z" fill="#17161B"/>
<path d="M14.1083 41.3176C14.1853 41.6016 14.4238 41.72 14.6816 41.6483C14.9394 41.5768 15.1406 41.2998 15.0636 41.0157C14.9866 40.7317 14.6934 40.6021 14.4357 40.6737C14.1778 40.7452 14.0313 41.0335 14.1083 41.3176Z" fill="#17161B"/>
<path d="M16.4876 39.9773C16.3341 39.9773 16.2097 39.8515 16.2097 39.6962C16.2097 39.5409 16.3341 39.415 16.4876 39.415C16.641 39.415 16.7654 39.5409 16.7654 39.6962C16.7654 39.8515 16.641 39.9773 16.4876 39.9773Z" fill="#D9D9D9" fill-opacity="0.6"/>
<path d="M15.4457 40.6092C15.2922 40.6092 15.1678 40.4833 15.1678 40.328C15.1678 40.1728 15.2922 40.0469 15.4457 40.0469C15.5991 40.0469 15.7235 40.1728 15.7235 40.328C15.7235 40.4833 15.5991 40.6092 15.4457 40.6092Z" fill="#D9D9D9" fill-opacity="0.6"/>
<path d="M14.5426 41.3123C14.3892 41.3123 14.2648 41.1864 14.2648 41.0312C14.2648 40.8759 14.3892 40.75 14.5426 40.75C14.6961 40.75 14.8205 40.8759 14.8205 41.0312C14.8205 41.1864 14.6961 41.3123 14.5426 41.3123Z" fill="#D9D9D9" fill-opacity="0.6"/>
<path d="M17.217 40.6998C16.8349 40.6295 16.4181 40.6295 16.3139 40.3835C16.2544 40.243 16.1671 40.8753 15.8624 41.0161C15.5899 41.1421 15.0983 40.8053 15.0983 40.9458C15.0983 41.0864 15.0679 41.5535 14.7858 41.6487C14.369 41.7893 14.296 41.4431 14.1606 41.6487C14.0911 41.7541 14.4168 42.1649 14.7858 42.3516C15.4109 42.6679 15.8808 42.6082 16.6613 42.6679C17.6489 42.7434 18.8493 42.8085 19.405 42.6679C19.5878 42.6216 19.7138 42.5078 19.8218 42.3516C19.9689 42.1388 19.8576 41.923 19.7537 41.7217L19.7523 41.719C19.3356 40.9107 18.3051 40.9 17.217 40.6998Z" fill="#5470DB"/>
<path d="M18.1199 35.1121C18.2589 35.3933 18.3503 36.0766 18.502 36.6936C18.5425 36.8583 18.6062 37.1153 18.6062 37.1153C18.6062 37.1153 18.3556 36.9994 18.1894 36.9396L18.1825 36.9371C17.6045 36.7291 17.2342 36.5959 16.6265 36.6936C16.0274 36.7899 15.6873 36.9849 15.2372 37.3965C14.785 37.81 14.4037 38.7319 14.4037 38.7319C14.4037 38.7319 14.4383 37.798 14.5773 37.2207C14.7587 36.4679 14.9247 35.9907 15.3414 35.3933C15.7305 34.8356 16.1603 34.5121 16.8349 34.5147C17.3872 34.5168 17.8729 34.6123 18.1199 35.1121Z" fill="#9FADE1"/>
<path d="M42.7195 13.8681C42.7195 18.4717 39.2117 27.7147 26.6737 27.7147C14.1356 27.7147 11.0446 19.3154 11.0446 13.8681C11.0446 6.48765 16.3584 -0.435676 26.6737 0.0214446C36.1553 -0.259966 42.7195 6.2208 42.7195 13.8681Z" fill="#130C28"/>
<path d="M42.7195 13.8681C42.7195 17.3473 37.093 28.6636 26.6737 27.7147C16.2543 26.7658 11.0446 19.3154 11.0446 13.8681C11.0446 6.48765 16.3584 -0.435676 26.6737 0.0214447C36.1553 -0.259966 42.7195 6.2208 42.7195 13.8681Z" fill="url(#paint9_linear_235_1004)"/>
<path d="M15.1758 18.3759C12.1146 15.9375 12.1379 10.5135 14.3287 7.39993C17.0266 3.93193 21.8844 3.37879 24.9456 5.81711C25.6607 6.38672 26.2194 7.00327 26.6373 7.65479C27.0553 7.00327 27.6138 6.38672 28.3289 5.81711C31.3902 3.37879 36.248 3.93193 38.9459 7.39993C41.1367 10.5135 41.1601 15.9375 38.0989 18.3759C34.7112 21.2944 30.8761 19.5264 28.2366 15.8714C27.9288 15.3816 26.6736 15.4497 26.6736 15.4497C26.6736 15.4497 25.4533 15.3816 25.1455 15.8714C22.9921 19.4561 18.5633 21.2944 15.1758 18.3759Z" fill="#9FADE1"/>
<path d="M27.7851 17.312C27.7851 17.967 27.2564 17.9445 26.6042 17.9445C25.952 17.9445 25.4233 17.967 25.4233 17.312C25.4233 16.6569 26.6042 16.0469 26.6042 16.0469C26.6042 16.0469 27.7851 16.6569 27.7851 17.312Z" fill="#17161B"/>
<path d="M20.2136 17.9441C22.6305 17.9441 24.5898 15.9616 24.5898 13.516C24.5898 11.0704 22.6305 9.08789 20.2136 9.08789C17.7967 9.08789 15.8375 11.0704 15.8375 13.516C15.8375 15.9616 17.7967 17.9441 20.2136 17.9441Z" fill="#D9D9D9" fill-opacity="0.5"/>
<path d="M25.458 14.9576C24.3466 17.8042 20.7726 20.1899 17.8395 19.1786C14.4482 18.1557 13.3215 14.5075 14.4482 11.162C15.9069 7.92882 18.4423 5.86442 21.9195 7.06344C24.8526 8.07481 26.5847 11.612 25.458 14.9576Z" fill="#F1F1F1"/>
<path d="M38.4665 9.15003C40.2169 11.6466 40.1618 16.049 37.6231 18.0711C34.8108 20.4876 31.0984 19.5181 28.9379 16.7409C27.0629 13.7336 26.7897 10.4113 29.7993 8.01398C32.338 5.99187 36.306 6.3728 38.4665 9.15003Z" fill="#F1F1F1"/>
<path d="M33.0642 17.9441C35.4811 17.9441 37.4403 15.9616 37.4403 13.516C37.4403 11.0704 35.4811 9.08789 33.0642 9.08789C30.6473 9.08789 28.688 11.0704 28.688 13.516C28.688 15.9616 30.6473 17.9441 33.0642 17.9441Z" fill="url(#paint10_linear_235_1004)"/>
<path d="M20.2136 17.9441C22.6305 17.9441 24.5898 15.9616 24.5898 13.516C24.5898 11.0704 22.6305 9.08789 20.2136 9.08789C17.7967 9.08789 15.8375 11.0704 15.8375 13.516C15.8375 15.9616 17.7967 17.9441 20.2136 17.9441Z" fill="url(#paint11_linear_235_1004)"/>
<path d="M29.7995 21.1773C29.7995 21.3714 28.3534 22.6182 26.5695 22.6182C24.7856 22.6182 23.3395 21.3714 23.3395 21.1773C23.3395 20.9832 24.7856 22.1965 26.5695 22.1965C28.3534 22.1965 29.7995 20.9832 29.7995 21.1773Z" fill="#4C70A3"/>
<path d="M31.9528 12.3213C32.6817 12.3213 33.2726 11.7234 33.2726 10.9859C33.2726 10.2483 32.6817 9.65039 31.9528 9.65039C31.2239 9.65039 30.6331 10.2483 30.6331 10.9859C30.6331 11.7234 31.2239 12.3213 31.9528 12.3213Z" fill="#F1F1F1"/>
<path d="M21.3945 12.3213C22.1234 12.3213 22.7143 11.7234 22.7143 10.9859C22.7143 10.2483 22.1234 9.65039 21.3945 9.65039C20.6656 9.65039 20.0747 10.2483 20.0747 10.9859C20.0747 11.7234 20.6656 12.3213 21.3945 12.3213Z" fill="#F1F1F1"/>
<path d="M26.6619 33.9805C27.8542 33.9805 28.8208 33.0052 28.8208 31.8022C28.8208 30.5992 27.8542 29.624 26.6619 29.624C25.4696 29.624 24.5031 30.5992 24.5031 31.8022C24.5031 33.0052 25.4696 33.9805 26.6619 33.9805Z" fill="#627EEA"/>
<path d="M26.7292 30.168V31.3756L27.7407 31.8317L26.7292 30.168Z" fill="white" fill-opacity="0.602"/>
<path d="M26.7292 30.168L25.7177 31.8317L26.7292 31.3756V30.168Z" fill="white"/>
<path d="M26.7292 32.614V33.4345L27.7413 32.0215L26.7292 32.614Z" fill="white" fill-opacity="0.602"/>
<path d="M26.7292 33.4345V32.614L25.7177 32.0215L26.7292 33.4345Z" fill="white"/>
<path d="M26.7292 32.4246L27.7407 31.8321L26.7292 31.376V32.4246Z" fill="white" fill-opacity="0.2"/>
<path d="M25.7177 31.8321L26.7292 32.4246V31.376L25.7177 31.8321Z" fill="white" fill-opacity="0.602"/>
</g>
<defs>
<linearGradient id="paint0_linear_235_1004" x1="52.9127" y1="4.7379" x2="35.2799" y2="21.1353" gradientUnits="userSpaceOnUse">
<stop stop-color="#C0CCF7"/>
<stop offset="1" stop-color="#F7F9FF"/>
</linearGradient>
<linearGradient id="paint1_linear_235_1004" x1="17.4868" y1="4.7379" x2="-0.146084" y2="21.1353" gradientUnits="userSpaceOnUse">
<stop stop-color="#C0CCF7"/>
<stop offset="1" stop-color="#F7F9FF"/>
</linearGradient>
<linearGradient id="paint2_linear_235_1004" x1="34.8656" y1="24.8317" x2="19.8592" y2="43.761" gradientUnits="userSpaceOnUse">
<stop stop-color="#DBDBDB"/>
<stop offset="0.810226" stop-color="#5B5B5B"/>
</linearGradient>
<linearGradient id="paint3_linear_235_1004" x1="34.8225" y1="27.9261" x2="21.3968" y2="43.0654" gradientUnits="userSpaceOnUse">
<stop stop-color="#C0CCF7"/>
<stop offset="1" stop-color="#F7F9FF"/>
</linearGradient>
<linearGradient id="paint4_linear_235_1004" x1="26.7084" y1="25.9746" x2="26.7084" y2="39.751" gradientUnits="userSpaceOnUse">
<stop stop-color="#9FADE1"/>
<stop offset="1" stop-color="#2D3F7C"/>
</linearGradient>
<linearGradient id="paint5_linear_235_1004" x1="36.1669" y1="33.2568" x2="38.8397" y2="37.5527" gradientUnits="userSpaceOnUse">
<stop stop-color="#DBDBDB"/>
<stop offset="1" stop-color="#555555"/>
</linearGradient>
<linearGradient id="paint6_linear_235_1004" x1="39.5979" y1="34.7584" x2="32.9311" y2="41.2262" gradientUnits="userSpaceOnUse">
<stop stop-color="#C0CCF7"/>
<stop offset="1" stop-color="#F7F9FF"/>
</linearGradient>
<linearGradient id="paint7_linear_235_1004" x1="17.3441" y1="33.2568" x2="14.1555" y2="37.9834" gradientUnits="userSpaceOnUse">
<stop stop-color="#DBDBDB"/>
<stop offset="1" stop-color="#555555"/>
</linearGradient>
<linearGradient id="paint8_linear_235_1004" x1="20.775" y1="34.7584" x2="14.1083" y2="41.2262" gradientUnits="userSpaceOnUse">
<stop stop-color="#C0CCF7"/>
<stop offset="1" stop-color="#F7F9FF"/>
</linearGradient>
<linearGradient id="paint9_linear_235_1004" x1="32.8686" y1="-6.20792" x2="25.4567" y2="29.4887" gradientUnits="userSpaceOnUse">
<stop offset="0.456624" stop-color="#C0CCF7"/>
<stop offset="1" stop-color="#627EE4"/>
</linearGradient>
<linearGradient id="paint10_linear_235_1004" x1="33.0642" y1="9.08789" x2="33.0642" y2="17.9441" gradientUnits="userSpaceOnUse">
<stop stop-color="#071D6D"/>
<stop offset="1" stop-color="#576CDA"/>
</linearGradient>
<linearGradient id="paint11_linear_235_1004" x1="20.2136" y1="9.08789" x2="20.2136" y2="17.9441" gradientUnits="userSpaceOnUse">
<stop stop-color="#071D6D"/>
<stop offset="1" stop-color="#576CDA"/>
</linearGradient>
<clipPath id="clip0_235_1004">
<rect width="53" height="44" fill="white"/>
</clipPath>
</defs>
</svg>
