<svg width="60" height="16" viewBox="0 0 60 16" fill="none" xmlns="http://www.w3.org/2000/svg">
<path d="M7.866 15.228C5.89 15.228 4.218 14.601 2.85 13.328C1.482 12.055 0.798 10.402 0.798 8.407C0.798 6.355 1.482 4.683 2.869 3.41C4.256 2.118 5.966 1.472 8.018 1.472C9.994 1.472 11.666 2.004 13.053 3.087L11.818 5.196L11.685 5.234C10.792 4.474 9.348 4.075 8.151 4.075C6.935 4.075 5.909 4.474 5.054 5.272C4.199 6.07 3.781 7.096 3.781 8.369C3.781 9.604 4.218 10.63 5.111 11.447C6.004 12.245 7.087 12.644 8.322 12.644C9.082 12.644 9.861 12.511 10.64 12.264C11.438 11.998 12.084 11.656 12.597 11.219H12.806V13.86C11.685 14.696 9.823 15.228 7.866 15.228ZM20.878 5.082C22.93 5.082 24.26 6.583 24.26 8.882V15H21.524V9.452C21.524 8.217 20.821 7.4 19.757 7.4C19.054 7.4 18.199 7.837 17.61 8.521V15H14.874V0.749999H17.61V6.982C18.37 5.842 19.605 5.082 20.878 5.082ZM31.1385 5.082C33.9695 5.082 35.6605 7.02 35.6415 10.364C35.6415 10.611 35.6225 10.82 35.6035 11.029H28.7445C29.0485 12.34 30.0745 13.138 31.6135 13.138C32.8105 13.138 33.9505 12.891 35.0335 12.378V14.411C34.6915 14.601 34.1595 14.791 33.4565 14.962C32.7535 15.133 32.0315 15.228 31.2905 15.228C29.6755 15.228 28.4215 14.753 27.5095 13.784C26.5975 12.815 26.1415 11.58 26.1415 10.079C26.1415 8.578 26.5785 7.381 27.4715 6.469C28.3645 5.538 29.5995 5.082 31.1385 5.082ZM31.1005 7.172C29.7325 7.172 28.8395 7.97 28.6685 9.395H33.1905C33.0575 7.913 32.3545 7.172 31.1005 7.172ZM43.4551 5.082C44.7661 5.082 45.8681 5.557 46.7611 6.507C47.6541 7.438 48.0911 8.654 48.0911 10.136C48.0911 11.675 47.6161 12.91 46.6661 13.841C45.7161 14.772 44.5381 15.228 43.1321 15.228C41.9541 15.228 40.9091 14.829 40.0161 14.05C39.5791 14.715 38.9901 15.076 38.2111 15.133L37.6221 14.924V0.749999H40.3581V6.469C41.1181 5.538 42.1441 5.082 43.4551 5.082ZM42.5431 12.929C44.2721 12.929 45.4121 11.808 45.4121 10.136C45.4121 8.521 44.3481 7.381 42.7711 7.381C41.8021 7.381 41.0041 7.723 40.3581 8.388V12.397C41.0611 12.758 41.8021 12.929 42.5431 12.929ZM56.6083 11.77V5.31H59.3443V15H56.8933L56.7603 13.081C56.0003 14.316 54.6893 15.228 53.3403 15.228C51.2693 15.228 49.9583 13.727 49.9583 11.428V5.31H52.6753V10.858C52.6753 12.131 53.3783 12.91 54.4423 12.91C55.1833 12.91 56.0193 12.473 56.6083 11.77Z" fill="white"/>
</svg>
