<svg width="60" height="49" viewBox="0 0 60 49" fill="none" xmlns="http://www.w3.org/2000/svg">
<g clip-path="url(#clip0_1_4944)">
<path d="M44.9797 13.9387C44.9797 22.0857 41.9966 26.8149 41.9966 26.8149C50.8215 31.5028 59.2114 23.1483 59.2114 15.0014C59.2114 6.8544 54.1129 -2.89178 39.8521 2.27479C39.8521 1.71226 44.9797 5.79181 44.9797 13.9387Z" fill="url(#paint0_linear_1_4944)"/>
<path d="M56.2907 11.6261C57.7201 19.8143 54.3642 22.8771 54.3642 22.8771C55.8557 22.5645 58.093 18.5642 58.093 14.6264C58.093 6.47943 51.8161 -0.562593 44.1099 2.00014C44.4206 2.00014 53.8048 2.81275 56.2907 11.6261Z" fill="white" fill-opacity="0.3"/>
<path d="M46.1605 13.8763C46.1605 20.6089 43.1152 25.6899 43.1152 25.6899C43.6745 25.6899 54.3639 23.0022 53.8667 14.8712C53.8667 8.13863 47.4034 4.25045 44.7311 5.18806C44.7311 4.7232 46.1605 7.14379 46.1605 13.8763Z" fill="#2D63A1"/>
<path d="M43.4091 13.9523C43.4091 20.6848 41.4238 26.7197 41.4238 26.7197C41.9831 26.7197 51.1154 25.8149 51.1154 14.9471C51.1154 8.21462 45.601 4.06287 42.9287 5.00048C42.9287 4.53562 43.4091 7.21974 43.4091 13.9523Z" fill="#183555"/>
<path d="M14.9818 13.9387C14.9818 22.0857 17.9649 26.8149 17.9649 26.8149C9.13988 31.5028 0.75 23.1483 0.75 15.0014C0.75 6.8544 5.84857 -2.89178 20.1094 2.27479C20.1094 1.71226 14.9818 5.79181 14.9818 13.9387Z" fill="url(#paint1_linear_1_4944)"/>
<path d="M3.67093 11.6261C2.24154 19.8143 5.59748 22.8771 5.59748 22.8771C4.10597 22.5645 1.86865 18.5642 1.86865 14.6264C1.86865 6.47943 8.14555 -0.562593 15.8518 2.00014C15.5411 2.00014 6.15683 2.81275 3.67093 11.6261Z" fill="white" fill-opacity="0.3"/>
<path d="M13.8007 13.8763C13.8007 20.6089 16.8459 25.6899 16.8459 25.6899C16.2866 25.6899 5.59727 23.0022 6.09445 14.8712C6.09445 8.13863 12.5578 4.25045 15.2301 5.18806C15.2301 4.7232 13.8007 7.14379 13.8007 13.8763Z" fill="#2D63A1"/>
<path d="M16.5525 13.9523C16.5525 20.6848 18.5377 26.7197 18.5377 26.7197C17.9784 26.7197 8.84619 25.8149 8.84619 14.9471C8.84619 8.21462 14.3605 4.06287 17.0329 5.00048C17.0329 4.53562 16.5525 7.21974 16.5525 13.9523Z" fill="#183555"/>
<path d="M21.3361 37.6346C20.968 34.4369 22.6646 30.0004 23.0612 29.5763C25.2097 27.2785 30.7666 27.3015 30.7666 27.3015C30.7666 27.3015 36.1919 27.1095 37.437 29.5763C38.7021 32.0825 39.2682 34.2182 39.2388 37.3261C39.2049 40.9042 36.8098 45.9542 35.7119 47.2352C34.7536 48.3533 32.5509 48.5075 31.5717 47.6978C30.5925 46.8882 30.4 45.8064 30.7666 44.6133C32.07 40.3721 35.4819 35.0128 34.0251 31.4656C33.1083 29.233 31.15 29.1522 29.8849 29.1522C28.2361 29.1522 26.013 30.6868 26.013 33.1235C26.013 37.6346 30.5936 42.8066 29.6549 46.4255C29.4249 47.3123 28.3899 48.122 27.7381 48.122C27.0864 48.122 24.978 48.122 24.2879 46.7339C22.6206 43.3804 21.7578 41.2975 21.3361 37.6346Z" fill="url(#paint2_linear_1_4944)"/>
<path d="M35.7887 33.858C35.7887 36.6527 32.1293 43.6108 30.4404 43.6108C28.7515 43.6108 24.9796 37.223 24.698 34.5995C24.4166 31.9759 26.3774 28.4967 30.0463 28.4967C33.7151 28.4967 35.7887 31.4625 35.7887 33.858Z" fill="url(#paint3_linear_1_4944)"/>
<path d="M34.0253 34.5887C34.0253 36.4779 31.5334 41.1818 30.3834 41.1818C29.2334 41.1818 26.6649 36.8635 26.4732 35.0899C26.2815 33.3163 27.6168 30.9644 30.1151 30.9644C32.6133 30.9644 34.0253 32.9693 34.0253 34.5887Z" fill="white"/>
<ellipse cx="2.39826" cy="2.46107" rx="2.39826" ry="2.46107" transform="matrix(0.965635 0.259901 -0.257741 0.966214 28.5317 31.8921)" fill="url(#paint4_linear_1_4944)"/>
<path d="M29.4768 35.3447C29.4912 35.3303 29.5108 35.3221 29.5311 35.3221H31.41C31.4443 35.3221 31.4614 35.3637 31.4372 35.388L31.0659 35.7606C31.0515 35.7751 31.032 35.7832 31.0116 35.7832H29.1327C29.0985 35.7832 29.0814 35.7417 29.1056 35.7174L29.4768 35.3447Z" fill="url(#paint5_linear_1_4944)"/>
<path d="M29.4768 33.9526C29.4912 33.9382 29.5108 33.9301 29.5311 33.9301H31.41C31.4443 33.9301 31.4614 33.9716 31.4372 33.9959L31.0659 34.3686C31.0515 34.383 31.032 34.3911 31.0116 34.3911H29.1327C29.0985 34.3911 29.0814 34.3496 29.1056 34.3253L29.4768 33.9526Z" fill="url(#paint6_linear_1_4944)"/>
<path d="M31.0659 34.6443C31.0515 34.6298 31.032 34.6217 31.0116 34.6217H29.1327C29.0985 34.6217 29.0814 34.6633 29.1056 34.6876L29.4768 35.0602C29.4912 35.0747 29.5108 35.0828 29.5311 35.0828H31.41C31.4443 35.0828 31.4614 35.0412 31.4372 35.0169L31.0659 34.6443Z" fill="url(#paint7_linear_1_4944)"/>
<path d="M30.6395 46.2391C30.3433 45.1464 31.2789 43.1886 31.2789 43.1886C31.2789 43.1886 31.1055 44.1493 31.2261 44.9989C31.3795 46.0785 32.2612 46.8496 32.2612 46.8496C32.2612 46.8496 31.6862 46.6954 31.6862 46.8496C31.6862 46.9204 31.9284 47.238 32.3379 47.5051C32.8208 47.8201 33.6691 48.1643 33.5654 48.1991C33.4504 48.2377 32.4344 48.2085 31.9182 47.9517C31.1319 47.5605 30.8695 47.0873 30.6395 46.2391Z" fill="#9945FF"/>
<path d="M29.8977 46.1449C30.194 45.0522 29.3607 43.0281 29.3607 43.0281C29.3607 43.0281 29.4318 44.0551 29.3111 44.9047C29.1578 45.9843 28.276 46.7554 28.276 46.7554C28.276 46.7554 28.8511 46.6012 28.8511 46.7554C28.8511 46.8262 28.6089 47.1438 28.1994 47.4109C27.7164 47.7259 26.8681 48.0701 26.9719 48.1049C27.0869 48.1434 28.1028 48.1143 28.619 47.8574C29.4054 47.4662 29.6677 46.9931 29.8977 46.1449Z" fill="#9945FF"/>
<path d="M41.7307 36.5165C40.754 36.357 39.2389 36.8635 39.2389 37.3647C39.2389 40.053 37.6671 43.4567 36.9005 45.5002C36.6478 46.1736 37.6436 46.5645 38.3572 46.6183C39.8904 46.734 41.9607 46.9618 42.6891 46.6183C43.626 46.1765 43.6952 45.3139 44.0692 44.3435C44.5595 43.0711 44.6712 40.0926 44.0692 38.907C43.4671 37.7215 43.0372 36.73 41.7307 36.5165Z" fill="#2D63A1"/>
<path d="M41.7307 36.5165C40.754 36.357 39.2389 36.8635 39.2389 37.3647C39.2389 40.053 37.6671 43.4567 36.9005 45.5002C36.6478 46.1736 37.6436 46.5645 38.3572 46.6183C39.8904 46.734 41.9607 46.9618 42.6891 46.6183C43.626 46.1765 43.6952 45.3139 44.0692 44.3435C44.5595 43.0711 44.6712 40.0926 44.0692 38.907C43.4671 37.7215 43.0372 36.73 41.7307 36.5165Z" fill="url(#paint8_linear_1_4944)"/>
<path d="M40.8488 40.912C39.7372 40.9078 38.2803 42.1458 38.2803 42.1458C38.2803 42.1458 38.7432 40.657 38.932 39.6781C39.113 38.7394 39.2387 37.2491 39.2387 37.2491C39.2387 37.2491 39.5639 37.1728 39.6987 37.519C40.0927 38.531 39.0985 40.7577 39.3153 40.7577C39.4303 40.7577 40.0626 40.2803 40.6571 40.2179C41.3112 40.1493 41.7201 40.2634 42.3055 40.5649C42.9557 40.8999 43.2805 41.2405 43.6472 41.8759C44.1415 42.7323 44.2606 44.382 44.0306 44.382C44.0306 44.382 43.6856 43.341 43.6472 43.1868C43.5525 42.8053 43.4172 42.1458 42.5739 41.4132C42.0431 40.9522 41.55 40.9146 40.8488 40.912Z" fill="#FFEDED" fill-opacity="0.7"/>
<path d="M38.5871 46.8461C38.5871 46.8461 36.4019 46.422 36.4785 46.075C36.5344 45.8225 38.1654 42.724 38.0887 43.0711C37.8889 43.9754 37.5137 44.9603 37.7437 45.4616C37.8333 45.657 38.3774 43.5371 39.3538 42.9554C40.0611 42.534 40.9215 42.4457 41.3472 42.5313C41.9223 42.6469 42.1139 43.341 42.1139 43.341C42.1139 43.341 43.1038 43.2196 43.379 43.6494C43.5429 43.9054 43.494 44.4205 43.494 44.4205C43.494 44.4205 44.2103 44.3883 44.3374 44.729C44.5674 45.3459 44.2189 45.9734 43.6857 46.3484C42.7469 47.0084 38.5825 46.7982 38.5871 46.8461Z" fill="#27BDEC"/>
<path d="M41.9929 43.9282C41.8864 44.3184 41.5528 44.5665 41.2477 44.4823C40.9427 44.3981 40.7422 43.924 40.8487 43.5338C40.9552 43.1436 41.3281 42.9851 41.6332 43.0693C41.9383 43.1535 42.0993 43.538 41.9929 43.9282Z" fill="#183555"/>
<path d="M43.3791 44.3819C43.2659 44.7967 42.7218 45.0674 42.3828 44.9739C42.0438 44.8803 41.8607 44.4682 41.9739 44.0534C42.087 43.6387 42.4536 43.3782 42.7925 43.4718C43.1315 43.5653 43.4922 43.9672 43.3791 44.3819Z" fill="#183555"/>
<path d="M44.2418 45.33C44.1568 45.6416 43.8936 45.7714 43.609 45.6929C43.3244 45.6144 43.1023 45.3105 43.1873 44.9988C43.2723 44.6872 43.5959 44.545 43.8805 44.6235C44.165 44.702 44.3268 45.0184 44.2418 45.33Z" fill="#183555"/>
<path d="M41.6153 43.8422C41.7847 43.8422 41.922 43.7041 41.922 43.5338C41.922 43.3634 41.7847 43.2253 41.6153 43.2253C41.4459 43.2253 41.3086 43.3634 41.3086 43.5338C41.3086 43.7041 41.4459 43.8422 41.6153 43.8422Z" fill="#D9D9D9" fill-opacity="0.6"/>
<path d="M42.7657 44.5362C42.935 44.5362 43.0724 44.3981 43.0724 44.2278C43.0724 44.0574 42.935 43.9193 42.7657 43.9193C42.5963 43.9193 42.459 44.0574 42.459 44.2278C42.459 44.3981 42.5963 44.5362 42.7657 44.5362Z" fill="#D9D9D9" fill-opacity="0.6"/>
<path d="M43.7623 45.3073C43.9316 45.3073 44.0689 45.1692 44.0689 44.9989C44.0689 44.8285 43.9316 44.6904 43.7623 44.6904C43.5929 44.6904 43.4556 44.8285 43.4556 44.9989C43.4556 45.1692 43.5929 45.3073 43.7623 45.3073Z" fill="#D9D9D9" fill-opacity="0.6"/>
<path d="M40.8102 44.6519C41.2319 44.5748 41.692 44.5748 41.807 44.3049C41.8727 44.1507 41.9691 44.8444 42.3054 44.999C42.6062 45.1371 43.1488 44.7676 43.1488 44.9218C43.1488 45.0761 43.1823 45.5886 43.4938 45.693C43.9538 45.8472 44.0343 45.4674 44.1839 45.693C44.2604 45.8086 43.901 46.2593 43.4938 46.4641C42.8037 46.8111 42.2851 46.7456 41.4236 46.8111C40.3334 46.894 39.0085 46.9653 38.3952 46.8111C38.1934 46.7604 38.0543 46.6355 37.9352 46.4641C37.7728 46.2307 37.8957 45.9939 38.0102 45.773L38.0118 45.7701C38.4718 44.8833 39.6092 44.8716 40.8102 44.6519Z" fill="#2D63A1"/>
<path d="M39.8136 38.5214C39.6602 38.8299 39.5593 39.5796 39.3919 40.2565C39.3472 40.4372 39.2769 40.7192 39.2769 40.7192C39.2769 40.7192 39.5536 40.592 39.7369 40.5264L39.7445 40.5237C40.3825 40.2955 40.7913 40.1493 41.462 40.2565C42.1233 40.3621 42.4987 40.5761 42.9954 41.0276C43.4946 41.4813 43.9155 42.4928 43.9155 42.4928C43.9155 42.4928 43.8773 41.4682 43.7238 40.8348C43.5236 40.0089 43.3404 39.4854 42.8804 38.8299C42.451 38.2181 41.9766 37.8632 41.232 37.866C40.6224 37.8683 40.0862 37.9731 39.8136 38.5214Z" fill="#183555"/>
<path d="M18.8332 36.5165C19.81 36.357 21.325 36.8635 21.325 37.3647C21.325 40.053 22.8967 43.4567 23.6634 45.5002C23.9161 46.1736 22.9203 46.5645 22.2067 46.6183C20.6734 46.734 18.6032 46.9618 17.8748 46.6183C16.9379 46.1765 16.8686 45.3139 16.4947 44.3435C16.0043 43.0711 15.8927 40.0926 16.4947 38.907C17.0967 37.7215 17.5267 36.73 18.8332 36.5165Z" fill="#2D63A1"/>
<path d="M18.8332 36.5165C19.81 36.357 21.325 36.8635 21.325 37.3647C21.325 40.053 22.8967 43.4567 23.6634 45.5002C23.9161 46.1736 22.9203 46.5645 22.2067 46.6183C20.6734 46.734 18.6032 46.9618 17.8748 46.6183C16.9379 46.1765 16.8686 45.3139 16.4947 44.3435C16.0043 43.0711 15.8927 40.0926 16.4947 38.907C17.0967 37.7215 17.5267 36.73 18.8332 36.5165Z" fill="url(#paint9_linear_1_4944)"/>
<path d="M19.7155 40.912C20.8271 40.9078 22.284 42.1458 22.284 42.1458C22.284 42.1458 21.821 40.657 21.6323 39.6781C21.4512 38.7394 21.3256 37.2491 21.3256 37.2491C21.3256 37.2491 21.0004 37.1728 20.8655 37.519C20.4715 38.531 21.4658 40.7577 21.2489 40.7577C21.1339 40.7577 20.5017 40.2803 19.9072 40.2179C19.253 40.1493 18.8441 40.2634 18.2587 40.5649C17.6086 40.8999 17.2837 41.2405 16.917 41.8759C16.4228 42.7323 16.3036 44.382 16.5336 44.382C16.5336 44.382 16.8787 43.341 16.917 43.1868C17.0118 42.8053 17.147 42.1458 17.9904 41.4132C18.5211 40.9522 19.0142 40.9146 19.7155 40.912Z" fill="#FFEDED" fill-opacity="0.7"/>
<path d="M21.977 46.8461C21.977 46.8461 24.1624 46.422 24.0856 46.075C24.0299 45.8225 22.3989 42.724 22.4755 43.0711C22.6753 43.9754 23.0506 44.9603 22.8206 45.4616C22.7309 45.657 22.1868 43.5371 21.2105 42.9554C20.5031 42.534 19.6428 42.4457 19.217 42.5313C18.642 42.6469 18.4503 43.341 18.4503 43.341C18.4503 43.341 17.4604 43.2196 17.1852 43.6494C17.0213 43.9054 17.0702 44.4205 17.0702 44.4205C17.0702 44.4205 16.3539 44.3883 16.2268 44.729C15.9968 45.3459 16.3452 45.9734 16.8785 46.3484C17.8173 47.0084 21.9817 46.7982 21.977 46.8461Z" fill="#27BDEC"/>
<path d="M18.5709 43.9282C18.6773 44.3184 19.0109 44.5665 19.316 44.4823C19.6211 44.3981 19.8215 43.924 19.7151 43.5338C19.6087 43.1436 19.2357 42.9851 18.9306 43.0693C18.6255 43.1535 18.4644 43.538 18.5709 43.9282Z" fill="#183555"/>
<path d="M17.1853 44.3819C17.2984 44.7967 17.8426 45.0674 18.1816 44.9739C18.5206 44.8803 18.7037 44.4682 18.5905 44.0534C18.4773 43.6387 18.1108 43.3782 17.7718 43.4718C17.4328 43.5653 17.0721 43.9672 17.1853 44.3819Z" fill="#183555"/>
<path d="M16.3225 45.33C16.4075 45.6416 16.6707 45.7714 16.9552 45.6929C17.2398 45.6144 17.4619 45.3105 17.3769 44.9988C17.2919 44.6872 16.9683 44.545 16.6838 44.6235C16.3992 44.702 16.2374 45.0184 16.3225 45.33Z" fill="#183555"/>
<path d="M18.9487 43.859C18.7793 43.859 18.642 43.7209 18.642 43.5505C18.642 43.3802 18.7793 43.2421 18.9487 43.2421C19.1181 43.2421 19.2554 43.3802 19.2554 43.5505C19.2554 43.7209 19.1181 43.859 18.9487 43.859Z" fill="#D9D9D9" fill-opacity="0.6"/>
<path d="M17.7983 44.5531C17.6289 44.5531 17.4916 44.415 17.4916 44.2446C17.4916 44.0743 17.6289 43.9362 17.7983 43.9362C17.9677 43.9362 18.105 44.0743 18.105 44.2446C18.105 44.415 17.9677 44.5531 17.7983 44.5531Z" fill="#D9D9D9" fill-opacity="0.6"/>
<path d="M16.8017 45.3242C16.6323 45.3242 16.495 45.1861 16.495 45.0157C16.495 44.8454 16.6323 44.7073 16.8017 44.7073C16.9711 44.7073 17.1084 44.8454 17.1084 45.0157C17.1084 45.1861 16.9711 45.3242 16.8017 45.3242Z" fill="#D9D9D9" fill-opacity="0.6"/>
<path d="M19.7535 44.6519C19.3319 44.5748 18.8718 44.5748 18.7568 44.3049C18.6911 44.1507 18.5947 44.8444 18.2585 44.999C17.9576 45.1371 17.4151 44.7676 17.4151 44.9218C17.4151 45.0761 17.3815 45.5886 17.0701 45.693C16.61 45.8472 16.5295 45.4674 16.38 45.693C16.3033 45.8086 16.6628 46.2593 17.0701 46.4641C17.7601 46.8111 18.2787 46.7456 19.1402 46.8111C20.2304 46.894 21.5553 46.9653 22.1687 46.8111C22.3704 46.7604 22.5095 46.6355 22.6287 46.4641C22.791 46.2307 22.6682 45.9939 22.5536 45.773L22.552 45.7701C22.092 44.8833 20.9546 44.8716 19.7535 44.6519Z" fill="#2D63A1"/>
<path d="M20.7503 38.5214C20.9037 38.8299 21.0046 39.5796 21.172 40.2565C21.2167 40.4372 21.287 40.7192 21.287 40.7192C21.287 40.7192 21.0104 40.592 20.827 40.5264L20.8194 40.5237C20.1814 40.2955 19.7726 40.1493 19.1019 40.2565C18.4407 40.3621 18.0652 40.5761 17.5685 41.0276C17.0693 41.4813 16.6484 42.4928 16.6484 42.4928C16.6484 42.4928 16.6866 41.4682 16.8401 40.8348C17.0403 40.0089 17.2235 39.4854 17.6835 38.8299C18.1129 38.2181 18.5873 37.8632 19.3319 37.866C19.9415 37.8683 20.4777 37.9731 20.7503 38.5214Z" fill="#183555"/>
<path d="M47.9029 15.2148C47.9029 20.2654 44.031 30.406 30.1919 30.406C16.3528 30.406 12.9409 21.191 12.9409 15.2148C12.9409 7.11765 18.8063 -0.477983 30.1919 0.0235271C40.6575 -0.285211 47.9029 6.82488 47.9029 15.2148Z" fill="#10052F"/>
<path d="M47.9029 15.2148C47.9029 19.0319 41.6926 31.4471 30.1919 30.406C18.6912 29.365 12.9409 21.191 12.9409 15.2148C12.9409 7.11765 18.8063 -0.477984 30.1919 0.0235271C40.6575 -0.285211 47.9029 6.82488 47.9029 15.2148Z" fill="url(#paint10_linear_1_4944)"/>
<path d="M17.5005 20.16C14.1216 17.4849 14.1474 11.5341 16.5656 8.1182C19.5434 4.31343 24.9053 3.70658 28.2842 6.38168C29.0735 7.0066 29.6901 7.68302 30.1515 8.39781C30.6128 7.68302 31.2293 7.0066 32.0186 6.38168C35.3975 3.70658 40.7595 4.31343 43.7373 8.1182C46.1555 11.5341 46.1813 17.4849 42.8024 20.16C39.0632 23.362 34.8302 21.4222 31.9167 17.4123C31.5769 16.8749 30.1916 16.9496 30.1916 16.9496C30.1916 16.9496 28.8445 16.8749 28.5048 17.4123C26.128 21.3451 21.2396 23.362 17.5005 20.16Z" fill="#2D63A1"/>
<path d="M31.4183 18.9931C31.4183 19.7117 30.8348 19.687 30.1149 19.687C29.3951 19.687 28.8115 19.7117 28.8115 18.9931C28.8115 18.2744 30.1149 17.6051 30.1149 17.6051C30.1149 17.6051 31.4183 18.2744 31.4183 18.9931Z" fill="#10052F"/>
<path d="M23.0612 19.6871C25.7289 19.6871 27.8915 17.512 27.8915 14.8289C27.8915 12.1459 25.7289 9.97083 23.0612 9.97083C20.3935 9.97083 18.231 12.1459 18.231 14.8289C18.231 17.512 20.3935 19.6871 23.0612 19.6871Z" fill="#D9D9D9" fill-opacity="0.5"/>
<path d="M28.85 16.4099C27.6232 19.5329 23.6783 22.1503 20.4408 21.0407C16.6976 19.9185 15.454 15.9161 16.6976 12.2457C18.3077 8.69855 21.1062 6.43368 24.9443 7.74914C28.1817 8.85872 30.0936 12.7394 28.85 16.4099Z" fill="#FFEDED"/>
<path d="M43.2085 10.0383C45.1405 12.7772 45.0797 17.6072 42.2776 19.8257C39.1734 22.4768 35.0757 21.4131 32.691 18.3662C30.6214 15.0669 30.3199 11.422 33.6419 8.79188C36.444 6.57342 40.8238 6.99133 43.2085 10.0383Z" fill="#FFEDED"/>
<path d="M37.2453 19.6871C39.913 19.6871 42.0756 17.512 42.0756 14.8289C42.0756 12.1459 39.913 9.97083 37.2453 9.97083C34.5776 9.97083 32.415 12.1459 32.415 14.8289C32.415 17.512 34.5776 19.6871 37.2453 19.6871Z" fill="#41D1FF"/>
<path d="M23.0612 19.6871C25.7289 19.6871 27.8915 17.512 27.8915 14.8289C27.8915 12.1459 25.7289 9.97083 23.0612 9.97083C20.3935 9.97083 18.231 12.1459 18.231 14.8289C18.231 17.512 20.3935 19.6871 23.0612 19.6871Z" fill="#41D1FF"/>
<path d="M33.6416 23.2343C33.6416 23.4472 32.0454 24.8151 30.0764 24.8151C28.1074 24.8151 26.5112 23.4472 26.5112 23.2343C26.5112 23.0213 28.1074 24.3524 30.0764 24.3524C32.0454 24.3524 33.6416 23.0213 33.6416 23.2343Z" fill="#172F50"/>
<path d="M36.0188 13.5181C36.8233 13.5181 37.4755 12.8621 37.4755 12.0529C37.4755 11.2437 36.8233 10.5878 36.0188 10.5878C35.2142 10.5878 34.562 11.2437 34.562 12.0529C34.562 12.8621 35.2142 13.5181 36.0188 13.5181Z" fill="#FFEDED"/>
<path d="M24.3645 13.5181C25.169 13.5181 25.8212 12.8621 25.8212 12.0529C25.8212 11.2437 25.169 10.5878 24.3645 10.5878C23.5599 10.5878 22.9077 11.2437 22.9077 12.0529C22.9077 12.8621 23.5599 13.5181 24.3645 13.5181Z" fill="#FFEDED"/>
</g>
<defs>
<linearGradient id="paint0_linear_1_4944" x1="60.9846" y1="0.831055" x2="37.3113" y2="3.24423" gradientUnits="userSpaceOnUse">
<stop stop-color="#19FB9B"/>
<stop offset="1" stop-color="#8C01FA"/>
</linearGradient>
<linearGradient id="paint1_linear_1_4944" x1="21.8825" y1="0.831055" x2="-1.79071" y2="3.24423" gradientUnits="userSpaceOnUse">
<stop stop-color="#19FB9B"/>
<stop offset="1" stop-color="#8C01FA"/>
</linearGradient>
<linearGradient id="paint2_linear_1_4944" x1="30.237" y1="27.298" x2="19.98" y2="41.0516" gradientUnits="userSpaceOnUse">
<stop stop-color="#19FB9B"/>
<stop offset="1" stop-color="#8C01FA"/>
</linearGradient>
<linearGradient id="paint3_linear_1_4944" x1="30.2301" y1="28.4967" x2="30.2301" y2="43.6108" gradientUnits="userSpaceOnUse">
<stop stop-color="#20ECA1"/>
<stop offset="1" stop-color="#12865B"/>
</linearGradient>
<linearGradient id="paint4_linear_1_4944" x1="2.39826" y1="0" x2="2.39826" y2="4.92214" gradientUnits="userSpaceOnUse">
<stop stop-color="#D9D9D9"/>
<stop offset="1" stop-color="#EEF5FF"/>
</linearGradient>
<linearGradient id="paint5_linear_1_4944" x1="30.6859" y1="33.4217" x2="29.3764" y2="35.9187" gradientUnits="userSpaceOnUse">
<stop stop-color="#00FFA3"/>
<stop offset="1" stop-color="#DC1FFF"/>
</linearGradient>
<linearGradient id="paint6_linear_1_4944" x1="30.6859" y1="33.4217" x2="29.3764" y2="35.9188" gradientUnits="userSpaceOnUse">
<stop stop-color="#00FFA3"/>
<stop offset="1" stop-color="#DC1FFF"/>
</linearGradient>
<linearGradient id="paint7_linear_1_4944" x1="30.6859" y1="33.4217" x2="29.3764" y2="35.9188" gradientUnits="userSpaceOnUse">
<stop stop-color="#00FFA3"/>
<stop offset="1" stop-color="#DC1FFF"/>
</linearGradient>
<linearGradient id="paint8_linear_1_4944" x1="40.6595" y1="36.4866" x2="35.4347" y2="42.5142" gradientUnits="userSpaceOnUse">
<stop stop-color="#19FB9B"/>
<stop offset="1" stop-color="#8C01FA"/>
</linearGradient>
<linearGradient id="paint9_linear_1_4944" x1="19.8831" y1="36.4866" x2="14.6583" y2="42.5142" gradientUnits="userSpaceOnUse">
<stop stop-color="#19FB9B"/>
<stop offset="1" stop-color="#8C01FA"/>
</linearGradient>
<linearGradient id="paint10_linear_1_4944" x1="30.3732" y1="9.98111e-07" x2="4.82081" y2="45.7863" gradientUnits="userSpaceOnUse">
<stop stop-color="#19FB9B"/>
<stop offset="1" stop-color="#8C01FA"/>
</linearGradient>
<clipPath id="clip0_1_4944">
<rect width="58.5" height="48.2727" fill="white" transform="translate(0.75)"/>
</clipPath>
</defs>
</svg>
