<svg width="129" height="44" viewBox="0 0 129 44" fill="none" xmlns="http://www.w3.org/2000/svg">
<g clip-path="url(#clip0_2201_241)">
<path d="M40.0715 12.7048C40.0715 20.1306 37.3689 24.4413 37.3689 24.4413C45.3641 28.7143 52.9652 21.0992 52.9652 13.6734C52.9652 6.24753 48.346 -2.63599 35.426 2.07327C35.426 1.56053 40.0715 5.27899 40.0715 12.7048Z" fill="url(#paint0_linear_2201_241)"/>
<path d="M50.3189 10.597C51.6139 18.0605 48.5735 20.8522 48.5735 20.8522C49.9247 20.5673 51.9517 16.9211 51.9517 13.3318C51.9517 5.90596 46.265 -0.512757 39.2832 1.82315C39.5647 1.82315 48.0667 2.56382 50.3189 10.597Z" fill="white" fill-opacity="0.3"/>
<path d="M41.1412 12.648C41.1412 18.7847 38.3823 23.416 38.3823 23.416C38.8891 23.416 48.5735 20.9661 48.123 13.5549C48.123 7.41819 42.2673 3.87416 39.8463 4.72878C39.8463 4.30507 41.1412 6.51141 41.1412 12.648Z" fill="#2D63A1"/>
<path d="M38.6485 12.7174C38.6485 18.854 36.8499 24.3547 36.8499 24.3547C37.3566 24.3547 45.6303 23.53 45.6303 13.6242C45.6303 7.48758 40.6344 3.7033 38.2133 4.55792C38.2133 4.13421 38.6485 6.58075 38.6485 12.7174Z" fill="#183555"/>
<path d="M12.8937 12.7048C12.8937 20.1306 15.5964 24.4413 15.5964 24.4413C7.60109 28.7143 0 21.0992 0 13.6734C0 6.24753 4.61922 -2.63599 17.5392 2.07327C17.5392 1.56053 12.8937 5.27899 12.8937 12.7048Z" fill="url(#paint1_linear_2201_241)"/>
<path d="M2.64632 10.597C1.35132 18.0605 4.39174 20.8522 4.39174 20.8522C3.04046 20.5673 1.01349 16.9211 1.01349 13.3318C1.01349 5.90596 6.70025 -0.512757 13.682 1.82315C13.4005 1.82315 4.89851 2.56382 2.64632 10.597Z" fill="white" fill-opacity="0.3"/>
<path d="M11.8239 12.648C11.8239 18.7847 14.5829 23.416 14.5829 23.416C14.0761 23.416 4.39176 20.9661 4.8422 13.5549C4.8422 7.41819 10.6979 3.87416 13.1189 4.72878C13.1189 4.30507 11.8239 6.51141 11.8239 12.648Z" fill="#2D63A1"/>
<path d="M14.3167 12.7174C14.3167 18.854 16.1153 24.3547 16.1153 24.3547C15.6085 24.3547 7.3349 23.53 7.3349 13.6242C7.3349 7.48758 12.3308 3.7033 14.7519 4.55792C14.7519 4.13421 14.3167 6.58075 14.3167 12.7174Z" fill="#183555"/>
<path d="M18.6507 34.3035C18.3172 31.3889 19.8543 27.3451 20.2136 26.9585C22.1601 24.8641 27.1946 24.885 27.1946 24.885C27.1946 24.885 32.1097 24.7101 33.2378 26.9585C34.384 29.2428 34.8969 31.1895 34.8702 34.0224C34.8395 37.2837 32.6696 41.8868 31.6749 43.0543C30.8067 44.0735 28.8111 44.2141 27.9239 43.4761C27.0368 42.738 26.8624 41.752 27.1946 40.6646C28.3754 36.7987 31.4665 31.9138 30.1467 28.6805C29.3161 26.6456 27.5419 26.5719 26.3957 26.5719C24.902 26.5719 22.8879 27.9707 22.8879 30.1917C22.8879 34.3035 27.0378 39.0178 26.1874 42.3163C25.979 43.1246 25.0413 43.8626 24.4508 43.8626C23.8604 43.8626 21.9502 43.8626 21.325 42.5975C19.8144 39.5407 19.0327 37.6422 18.6507 34.3035Z" fill="url(#paint2_linear_2201_241)"/>
<path d="M31.7444 30.8613C31.7444 33.4087 28.429 39.751 26.8989 39.751C25.3688 39.751 21.9515 33.9286 21.6964 31.5372C21.4414 29.1458 23.2179 25.9746 26.5419 25.9746C29.8658 25.9746 31.7444 28.6779 31.7444 30.8613Z" fill="url(#paint3_linear_2201_241)"/>
<path d="M30.1468 31.5271C30.1468 33.2492 27.8892 37.5367 26.8473 37.5367C25.8054 37.5367 23.4784 33.6006 23.3047 31.984C23.131 30.3674 24.3407 28.2236 26.6042 28.2236C28.8675 28.2236 30.1468 30.0511 30.1468 31.5271Z" fill="white"/>
<ellipse cx="2.17368" cy="2.24234" rx="2.17368" ry="2.24234" transform="matrix(0.965238 0.261372 -0.256287 0.966601 25.1696 29.0693)" fill="url(#paint4_linear_2201_241)"/>
<path d="M26.0261 32.2164C26.0391 32.2032 26.0568 32.1958 26.0753 32.1958H27.7775C27.8085 32.1958 27.8241 32.2337 27.8021 32.2558L27.4658 32.5955C27.4527 32.6087 27.435 32.6161 27.4166 32.6161H25.7143C25.6833 32.6161 25.6678 32.5782 25.6897 32.556L26.0261 32.2164Z" fill="url(#paint5_linear_2201_241)"/>
<path d="M26.0261 30.9473C26.0391 30.9342 26.0568 30.9268 26.0753 30.9268H27.7775C27.8085 30.9268 27.8241 30.9647 27.8021 30.9868L27.4658 31.3265C27.4527 31.3396 27.435 31.347 27.4166 31.347H25.7143C25.6833 31.347 25.6678 31.3091 25.6897 31.287L26.0261 30.9473Z" fill="url(#paint6_linear_2201_241)"/>
<path d="M27.4658 31.5777C27.4527 31.5645 27.435 31.5571 27.4166 31.5571H25.7143C25.6833 31.5571 25.6678 31.595 25.6897 31.6172L26.0261 31.9568C26.0391 31.97 26.0568 31.9774 26.0753 31.9774H27.7775C27.8085 31.9774 27.8241 31.9395 27.8021 31.9174L27.4658 31.5777Z" fill="url(#paint7_linear_2201_241)"/>
<path d="M27.0793 42.1462C26.8109 41.1502 27.6585 39.3657 27.6585 39.3657C27.6585 39.3657 27.5014 40.2414 27.6107 41.0158C27.7497 41.9998 28.5485 42.7027 28.5485 42.7027C28.5485 42.7027 28.0275 42.5621 28.0275 42.7027C28.0275 42.7672 28.2469 43.0567 28.6179 43.3002C29.0555 43.5873 29.824 43.901 29.73 43.9327C29.6258 43.9679 28.7054 43.9413 28.2377 43.7072C27.5253 43.3506 27.2876 42.9194 27.0793 42.1462Z" fill="#9945FF"/>
<path d="M26.4073 42.0606C26.6757 41.0647 25.9208 39.2197 25.9208 39.2197C25.9208 39.2197 25.9852 40.1558 25.8758 40.9302C25.7369 41.9143 24.9381 42.6171 24.9381 42.6171C24.9381 42.6171 25.4591 42.4766 25.4591 42.6171C25.4591 42.6817 25.2396 42.9712 24.8686 43.2146C24.4311 43.5017 23.6626 43.8155 23.7565 43.8472C23.8607 43.8823 24.7812 43.8557 25.2488 43.6216C25.9613 43.265 26.1989 42.8338 26.4073 42.0606Z" fill="#9945FF"/>
<path d="M37.1278 33.2841C36.2429 33.1387 34.8702 33.6004 34.8702 34.0573C34.8703 36.5076 33.4462 39.61 32.7517 41.4726C32.5227 42.0864 33.4249 42.4427 34.0715 42.4918C35.4605 42.5972 37.3361 42.8049 37.9961 42.4918C38.8449 42.0891 38.9076 41.3028 39.2464 40.4183C39.6906 39.2586 39.7919 36.5437 39.2464 35.463C38.7009 34.3824 38.3115 33.4787 37.1278 33.2841Z" fill="#2D63A1"/>
<path d="M37.1278 33.2841C36.2429 33.1387 34.8702 33.6004 34.8702 34.0573C34.8703 36.5076 33.4462 39.61 32.7517 41.4726C32.5227 42.0864 33.4249 42.4427 34.0715 42.4918C35.4605 42.5972 37.3361 42.8049 37.9961 42.4918C38.8449 42.0891 38.9076 41.3028 39.2464 40.4183C39.6906 39.2586 39.7919 36.5437 39.2464 35.463C38.7009 34.3824 38.3115 33.4787 37.1278 33.2841Z" fill="url(#paint8_linear_2201_241)"/>
<path d="M36.3288 37.2905C35.3218 37.2867 34.0018 38.4151 34.0018 38.4151C34.0018 38.4151 34.4212 37.0581 34.5923 36.1659C34.7563 35.3102 34.8701 33.9518 34.8701 33.9518C34.8701 33.9518 35.1648 33.8822 35.2869 34.1978C35.6439 35.1203 34.7431 37.1499 34.9396 37.1499C35.0438 37.1499 35.6166 36.7148 36.1552 36.6579C36.7478 36.5953 37.1183 36.6993 37.6486 36.9742C38.2377 37.2795 38.532 37.5899 38.8642 38.1691C39.312 38.9497 39.4199 40.4534 39.2115 40.4534C39.2115 40.4534 38.8989 39.5045 38.8642 39.364C38.7784 39.0163 38.6558 38.4151 37.8917 37.7474C37.4109 37.3272 36.9641 37.2929 36.3288 37.2905Z" fill="#FFEDED" fill-opacity="0.7"/>
<path d="M34.2798 42.6996C34.2798 42.6996 32.3 42.313 32.3695 41.9968C32.42 41.7666 33.8977 38.9424 33.8282 39.2587C33.6472 40.083 33.3073 40.9807 33.5157 41.4376C33.5969 41.6157 34.0898 39.6835 34.9744 39.1533C35.6152 38.7691 36.3947 38.6887 36.7804 38.7667C37.3014 38.8721 37.475 39.5047 37.475 39.5047C37.475 39.5047 38.3718 39.3941 38.6212 39.7859C38.7697 40.0192 38.7254 40.4887 38.7254 40.4887C38.7254 40.4887 39.3744 40.4594 39.4895 40.7699C39.6978 41.3322 39.3821 41.9042 38.899 42.2459C38.0485 42.8476 34.2756 42.6559 34.2798 42.6996Z" fill="#27BDEC"/>
<path d="M37.3655 40.0402C37.269 40.3958 36.9667 40.622 36.6904 40.5452C36.414 40.4685 36.2324 40.0363 36.3288 39.6807C36.4253 39.325 36.7631 39.1806 37.0395 39.2573C37.316 39.3341 37.4619 39.6845 37.3655 40.0402Z" fill="#183555"/>
<path d="M38.6211 40.4539C38.5186 40.832 38.0256 41.0787 37.7185 40.9934C37.4114 40.9081 37.2456 40.5325 37.3481 40.1545C37.4505 39.7764 37.7826 39.539 38.0897 39.6243C38.3968 39.7095 38.7236 40.0758 38.6211 40.4539Z" fill="#183555"/>
<path d="M39.4028 41.3176C39.3258 41.6016 39.0873 41.72 38.8295 41.6483C38.5717 41.5768 38.3705 41.2998 38.4475 41.0157C38.5245 40.7317 38.8176 40.6021 39.0755 40.6737C39.3332 40.7452 39.4798 41.0335 39.4028 41.3176Z" fill="#183555"/>
<path d="M37.0235 39.9617C37.1769 39.9617 37.3013 39.8358 37.3013 39.6806C37.3013 39.5253 37.1769 39.3994 37.0235 39.3994C36.87 39.3994 36.7456 39.5253 36.7456 39.6806C36.7456 39.8358 36.87 39.9617 37.0235 39.9617Z" fill="#D9D9D9" fill-opacity="0.6"/>
<path d="M38.0654 40.594C38.2188 40.594 38.3432 40.4682 38.3432 40.3129C38.3432 40.1576 38.2188 40.0317 38.0654 40.0317C37.9119 40.0317 37.7875 40.1576 37.7875 40.3129C37.7875 40.4682 37.9119 40.594 38.0654 40.594Z" fill="#D9D9D9" fill-opacity="0.6"/>
<path d="M38.9684 41.2972C39.1219 41.2972 39.2463 41.1713 39.2463 41.016C39.2463 40.8607 39.1219 40.7349 38.9684 40.7349C38.8149 40.7349 38.6906 40.8607 38.6906 41.016C38.6906 41.1713 38.8149 41.2972 38.9684 41.2972Z" fill="#D9D9D9" fill-opacity="0.6"/>
<path d="M36.2941 40.6998C36.6762 40.6295 37.0929 40.6295 37.1971 40.3835C37.2567 40.243 37.344 40.8753 37.6487 41.0161C37.9212 41.1421 38.4128 40.8053 38.4128 40.9458C38.4128 41.0864 38.4432 41.5535 38.7254 41.6487C39.1421 41.7893 39.2151 41.4431 39.3505 41.6487C39.4199 41.7541 39.0943 42.1649 38.7254 42.3516C38.1002 42.6679 37.6303 42.6082 36.8498 42.6679C35.8621 42.7434 34.6617 42.8085 34.1061 42.6679C33.9233 42.6216 33.7973 42.5078 33.6893 42.3516C33.5423 42.1388 33.6536 41.923 33.7573 41.7217L33.7587 41.719C34.1755 40.9107 35.206 40.9 36.2941 40.6998Z" fill="#2D63A1"/>
<path d="M35.3911 35.1116C35.2522 35.3928 35.1607 36.0761 35.009 36.6931C34.9685 36.8578 34.9048 37.1148 34.9048 37.1148C34.9048 37.1148 35.1555 36.9989 35.3216 36.9391L35.3285 36.9366C35.9066 36.7287 36.2769 36.5954 36.8845 36.6931C37.4836 36.7894 37.8238 36.9844 38.2738 37.396C38.7261 37.8095 39.1073 38.7314 39.1073 38.7314C39.1073 38.7314 39.0727 37.7975 38.9337 37.2202C38.7523 36.4674 38.5864 35.9902 38.1696 35.3928C37.7805 34.8351 37.3508 34.5116 36.6761 34.5142C36.1239 34.5163 35.6381 34.6118 35.3911 35.1116Z" fill="#183555"/>
<path d="M16.3832 33.2841C17.2682 33.1387 18.6408 33.6004 18.6408 34.0573C18.6408 36.5076 20.0648 39.61 20.7594 41.4726C20.9883 42.0864 20.0861 42.4427 19.4396 42.4918C18.0505 42.5972 16.1748 42.8049 15.5149 42.4918C14.6662 42.0891 14.6034 41.3028 14.2646 40.4183C13.8203 39.2586 13.7192 36.5437 14.2646 35.463C14.81 34.3824 15.1996 33.4787 16.3832 33.2841Z" fill="#2D63A1"/>
<path d="M16.3832 33.2841C17.2682 33.1387 18.6408 33.6004 18.6408 34.0573C18.6408 36.5076 20.0648 39.61 20.7594 41.4726C20.9883 42.0864 20.0861 42.4427 19.4396 42.4918C18.0505 42.5972 16.1748 42.8049 15.5149 42.4918C14.6662 42.0891 14.6034 41.3028 14.2646 40.4183C13.8203 39.2586 13.7192 36.5437 14.2646 35.463C14.81 34.3824 15.1996 33.4787 16.3832 33.2841Z" fill="url(#paint9_linear_2201_241)"/>
<path d="M17.1822 37.2905C18.1893 37.2867 19.5092 38.4151 19.5092 38.4151C19.5092 38.4151 19.0898 37.0581 18.9188 36.1659C18.7548 35.3102 18.6409 33.9518 18.6409 33.9518C18.6409 33.9518 18.3463 33.8822 18.2242 34.1978C17.8672 35.1203 18.768 37.1499 18.5715 37.1499C18.4673 37.1499 17.8945 36.7148 17.3559 36.6579C16.7632 36.5953 16.3928 36.6993 15.8624 36.9742C15.2734 37.2795 14.9791 37.5899 14.6468 38.1691C14.1991 38.9497 14.0911 40.4534 14.2995 40.4534C14.2995 40.4534 14.6121 39.5045 14.6468 39.364C14.7328 39.0163 14.8552 38.4151 15.6193 37.7474C16.1001 37.3272 16.5469 37.2929 17.1822 37.2905Z" fill="#FFEDED" fill-opacity="0.7"/>
<path d="M19.2312 42.6996C19.2312 42.6996 21.2111 42.313 21.1416 41.9968C21.0911 41.7666 19.6134 38.9424 19.6829 39.2587C19.8639 40.083 20.2038 40.9807 19.9954 41.4376C19.9142 41.6157 19.4213 39.6835 18.5367 39.1533C17.8959 38.7691 17.1164 38.6887 16.7307 38.7667C16.2097 38.8721 16.0361 39.5047 16.0361 39.5047C16.0361 39.5047 15.1392 39.3941 14.8899 39.7859C14.7414 40.0192 14.7857 40.4887 14.7857 40.4887C14.7857 40.4887 14.1367 40.4594 14.0216 40.7699C13.8133 41.3322 14.1289 41.9042 14.6121 42.2459C15.4626 42.8476 19.2354 42.6559 19.2312 42.6996Z" fill="#27BDEC"/>
<path d="M16.1456 40.0402C16.242 40.3958 16.5442 40.622 16.8206 40.5452C17.097 40.4685 17.2786 40.0363 17.1822 39.6807C17.0858 39.325 16.7478 39.1806 16.4714 39.2573C16.1951 39.3341 16.0491 39.6845 16.1456 40.0402Z" fill="#183555"/>
<path d="M14.8899 40.4539C14.9925 40.832 15.4855 41.0787 15.7926 40.9934C16.0997 40.9081 16.2656 40.5325 16.163 40.1545C16.0605 39.7764 15.7285 39.539 15.4213 39.6243C15.1142 39.7095 14.7874 40.0758 14.8899 40.4539Z" fill="#183555"/>
<path d="M14.1083 41.3176C14.1853 41.6016 14.4238 41.72 14.6816 41.6483C14.9394 41.5768 15.1406 41.2998 15.0636 41.0157C14.9866 40.7317 14.6934 40.6021 14.4357 40.6737C14.1778 40.7452 14.0313 41.0335 14.1083 41.3176Z" fill="#183555"/>
<path d="M16.4876 39.9769C16.3341 39.9769 16.2097 39.851 16.2097 39.6957C16.2097 39.5404 16.3341 39.4146 16.4876 39.4146C16.641 39.4146 16.7654 39.5404 16.7654 39.6957C16.7654 39.851 16.641 39.9769 16.4876 39.9769Z" fill="#D9D9D9" fill-opacity="0.6"/>
<path d="M15.4457 40.6097C15.2922 40.6097 15.1678 40.4838 15.1678 40.3285C15.1678 40.1732 15.2922 40.0474 15.4457 40.0474C15.5991 40.0474 15.7235 40.1732 15.7235 40.3285C15.7235 40.4838 15.5991 40.6097 15.4457 40.6097Z" fill="#D9D9D9" fill-opacity="0.6"/>
<path d="M14.5426 41.3123C14.3892 41.3123 14.2648 41.1864 14.2648 41.0312C14.2648 40.8759 14.3892 40.75 14.5426 40.75C14.6961 40.75 14.8205 40.8759 14.8205 41.0312C14.8205 41.1864 14.6961 41.3123 14.5426 41.3123Z" fill="#D9D9D9" fill-opacity="0.6"/>
<path d="M17.217 40.6998C16.8349 40.6295 16.4181 40.6295 16.3139 40.3835C16.2544 40.243 16.1671 40.8753 15.8624 41.0161C15.5899 41.1421 15.0983 40.8053 15.0983 40.9458C15.0983 41.0864 15.0679 41.5535 14.7858 41.6487C14.369 41.7893 14.296 41.4431 14.1606 41.6487C14.0911 41.7541 14.4168 42.1649 14.7858 42.3516C15.4109 42.6679 15.8808 42.6082 16.6613 42.6679C17.6489 42.7434 18.8493 42.8085 19.405 42.6679C19.5878 42.6216 19.7138 42.5078 19.8218 42.3516C19.9689 42.1388 19.8576 41.923 19.7537 41.7217L19.7523 41.719C19.3356 40.9107 18.3051 40.9 17.217 40.6998Z" fill="#2D63A1"/>
<path d="M18.1199 35.1116C18.2589 35.3928 18.3503 36.0761 18.502 36.6931C18.5425 36.8578 18.6062 37.1148 18.6062 37.1148C18.6062 37.1148 18.3556 36.9989 18.1894 36.9391L18.1825 36.9366C17.6045 36.7287 17.2342 36.5954 16.6265 36.6931C16.0274 36.7894 15.6873 36.9844 15.2372 37.396C14.785 37.8095 14.4037 38.7314 14.4037 38.7314C14.4037 38.7314 14.4383 37.7975 14.5773 37.2202C14.7587 36.4674 14.9247 35.9902 15.3414 35.3928C15.7305 34.8351 16.1603 34.5116 16.8349 34.5142C17.3872 34.5163 17.8729 34.6118 18.1199 35.1116Z" fill="#183555"/>
<path d="M42.7195 13.8681C42.7195 18.4717 39.2117 27.7147 26.6737 27.7147C14.1356 27.7147 11.0446 19.3154 11.0446 13.8681C11.0446 6.48765 16.3584 -0.435676 26.6737 0.0214446C36.1553 -0.259966 42.7195 6.2208 42.7195 13.8681Z" fill="#10052F"/>
<path d="M42.7195 13.8681C42.7195 17.3473 37.093 28.6636 26.6737 27.7147C16.2543 26.7658 11.0446 19.3154 11.0446 13.8681C11.0446 6.48765 16.3584 -0.435676 26.6737 0.0214447C36.1553 -0.259966 42.7195 6.2208 42.7195 13.8681Z" fill="url(#paint10_linear_2201_241)"/>
<path d="M15.1758 18.3754C12.1146 15.9371 12.1379 10.513 14.3287 7.39944C17.0266 3.93144 21.8844 3.3783 24.9456 5.81662C25.6607 6.38623 26.2194 7.00278 26.6373 7.6543C27.0553 7.00278 27.6138 6.38623 28.3289 5.81662C31.3902 3.3783 36.248 3.93144 38.9459 7.39944C41.1367 10.513 41.1601 15.9371 38.0989 18.3754C34.7112 21.294 30.8761 19.5259 28.2366 15.8709C27.9288 15.3811 26.6736 15.4492 26.6736 15.4492C26.6736 15.4492 25.4533 15.3811 25.1455 15.8709C22.9921 19.4556 18.5633 21.294 15.1758 18.3754Z" fill="#2D63A1"/>
<path d="M27.7851 17.312C27.7851 17.967 27.2564 17.9445 26.6042 17.9445C25.952 17.9445 25.4233 17.967 25.4233 17.312C25.4233 16.6569 26.6042 16.0469 26.6042 16.0469C26.6042 16.0469 27.7851 16.6569 27.7851 17.312Z" fill="#10052F"/>
<path d="M20.2136 17.9446C22.6305 17.9446 24.5898 15.9621 24.5898 13.5165C24.5898 11.0709 22.6305 9.08838 20.2136 9.08838C17.7967 9.08838 15.8375 11.0709 15.8375 13.5165C15.8375 15.9621 17.7967 17.9446 20.2136 17.9446Z" fill="#D9D9D9" fill-opacity="0.5"/>
<path d="M25.458 14.9571C24.3466 17.8037 20.7726 20.1894 17.8395 19.1781C14.4482 18.1552 13.3215 14.507 14.4482 11.1616C15.9069 7.92833 18.4423 5.86393 21.9195 7.06295C24.8526 8.07432 26.5847 11.6115 25.458 14.9571Z" fill="#FFEDED"/>
<path d="M38.4665 9.14955C40.2169 11.6461 40.1618 16.0485 37.6231 18.0707C34.8108 20.4871 31.0984 19.5176 28.9379 16.7404C27.0629 13.7331 26.7897 10.4108 29.7993 8.01349C32.338 5.99139 36.306 6.37231 38.4665 9.14955Z" fill="#FFEDED"/>
<path d="M33.0642 17.9446C35.4811 17.9446 37.4403 15.9621 37.4403 13.5165C37.4403 11.0709 35.4811 9.08838 33.0642 9.08838C30.6473 9.08838 28.688 11.0709 28.688 13.5165C28.688 15.9621 30.6473 17.9446 33.0642 17.9446Z" fill="#41D1FF"/>
<path d="M20.2136 17.9446C22.6305 17.9446 24.5898 15.9621 24.5898 13.5165C24.5898 11.0709 22.6305 9.08838 20.2136 9.08838C17.7967 9.08838 15.8375 11.0709 15.8375 13.5165C15.8375 15.9621 17.7967 17.9446 20.2136 17.9446Z" fill="#41D1FF"/>
<path d="M29.7995 21.1778C29.7995 21.3718 28.3534 22.6187 26.5695 22.6187C24.7856 22.6187 23.3395 21.3718 23.3395 21.1778C23.3395 20.9836 24.7856 22.1969 26.5695 22.1969C28.3534 22.1969 29.7995 20.9836 29.7995 21.1778Z" fill="#172F50"/>
<path d="M31.9528 12.3213C32.6817 12.3213 33.2726 11.7234 33.2726 10.9859C33.2726 10.2483 32.6817 9.65039 31.9528 9.65039C31.2239 9.65039 30.6331 10.2483 30.6331 10.9859C30.6331 11.7234 31.2239 12.3213 31.9528 12.3213Z" fill="#FFEDED"/>
<path d="M21.3945 12.3213C22.1234 12.3213 22.7143 11.7234 22.7143 10.9859C22.7143 10.2483 22.1234 9.65039 21.3945 9.65039C20.6656 9.65039 20.0747 10.2483 20.0747 10.9859C20.0747 11.7234 20.6656 12.3213 21.3945 12.3213Z" fill="#FFEDED"/>
</g>
<path d="M68.866 29.228C66.89 29.228 65.218 28.601 63.85 27.328C62.482 26.055 61.798 24.402 61.798 22.407C61.798 20.355 62.482 18.683 63.869 17.41C65.256 16.118 66.966 15.472 69.018 15.472C70.994 15.472 72.666 16.004 74.053 17.087L72.818 19.196L72.685 19.234C71.792 18.474 70.348 18.075 69.151 18.075C67.935 18.075 66.909 18.474 66.054 19.272C65.199 20.07 64.781 21.096 64.781 22.369C64.781 23.604 65.218 24.63 66.111 25.447C67.004 26.245 68.087 26.644 69.322 26.644C70.082 26.644 70.861 26.511 71.64 26.264C72.438 25.998 73.084 25.656 73.597 25.219H73.806V27.86C72.685 28.696 70.823 29.228 68.866 29.228ZM81.878 19.082C83.93 19.082 85.26 20.583 85.26 22.882V29H82.524V23.452C82.524 22.217 81.821 21.4 80.757 21.4C80.054 21.4 79.199 21.837 78.61 22.521V29H75.874V14.75H78.61V20.982C79.37 19.842 80.605 19.082 81.878 19.082ZM92.1385 19.082C94.9695 19.082 96.6605 21.02 96.6415 24.364C96.6415 24.611 96.6225 24.82 96.6035 25.029H89.7445C90.0485 26.34 91.0745 27.138 92.6135 27.138C93.8105 27.138 94.9505 26.891 96.0335 26.378V28.411C95.6915 28.601 95.1595 28.791 94.4565 28.962C93.7535 29.133 93.0315 29.228 92.2905 29.228C90.6755 29.228 89.4215 28.753 88.5095 27.784C87.5975 26.815 87.1415 25.58 87.1415 24.079C87.1415 22.578 87.5785 21.381 88.4715 20.469C89.3645 19.538 90.5995 19.082 92.1385 19.082ZM92.1005 21.172C90.7325 21.172 89.8395 21.97 89.6685 23.395H94.1905C94.0575 21.913 93.3545 21.172 92.1005 21.172ZM104.455 19.082C105.766 19.082 106.868 19.557 107.761 20.507C108.654 21.438 109.091 22.654 109.091 24.136C109.091 25.675 108.616 26.91 107.666 27.841C106.716 28.772 105.538 29.228 104.132 29.228C102.954 29.228 101.909 28.829 101.016 28.05C100.579 28.715 99.9901 29.076 99.2111 29.133L98.6221 28.924V14.75H101.358V20.469C102.118 19.538 103.144 19.082 104.455 19.082ZM103.543 26.929C105.272 26.929 106.412 25.808 106.412 24.136C106.412 22.521 105.348 21.381 103.771 21.381C102.802 21.381 102.004 21.723 101.358 22.388V26.397C102.061 26.758 102.802 26.929 103.543 26.929ZM117.608 25.77V19.31H120.344V29H117.893L117.76 27.081C117 28.316 115.689 29.228 114.34 29.228C112.269 29.228 110.958 27.727 110.958 25.428V19.31H113.675V24.858C113.675 26.131 114.378 26.91 115.442 26.91C116.183 26.91 117.019 26.473 117.608 25.77Z" fill="white"/>
<defs>
<linearGradient id="paint0_linear_2201_241" x1="54.5717" y1="0.757325" x2="33.1215" y2="2.93068" gradientUnits="userSpaceOnUse">
<stop stop-color="#19FB9B"/>
<stop offset="1" stop-color="#8C01FA"/>
</linearGradient>
<linearGradient id="paint1_linear_2201_241" x1="19.1457" y1="0.757325" x2="-2.3045" y2="2.93068" gradientUnits="userSpaceOnUse">
<stop stop-color="#19FB9B"/>
<stop offset="1" stop-color="#8C01FA"/>
</linearGradient>
<linearGradient id="paint2_linear_2201_241" x1="26.7147" y1="24.8818" x2="17.3496" y2="37.3637" gradientUnits="userSpaceOnUse">
<stop stop-color="#19FB9B"/>
<stop offset="1" stop-color="#8C01FA"/>
</linearGradient>
<linearGradient id="paint3_linear_2201_241" x1="26.7084" y1="25.9746" x2="26.7084" y2="39.751" gradientUnits="userSpaceOnUse">
<stop stop-color="#20ECA1"/>
<stop offset="1" stop-color="#12865B"/>
</linearGradient>
<linearGradient id="paint4_linear_2201_241" x1="2.17368" y1="0" x2="2.17368" y2="4.48467" gradientUnits="userSpaceOnUse">
<stop stop-color="#D9D9D9"/>
<stop offset="1" stop-color="#EEF5FF"/>
</linearGradient>
<linearGradient id="paint5_linear_2201_241" x1="27.1214" y1="30.4635" x2="25.9237" y2="32.7336" gradientUnits="userSpaceOnUse">
<stop stop-color="#00FFA3"/>
<stop offset="1" stop-color="#DC1FFF"/>
</linearGradient>
<linearGradient id="paint6_linear_2201_241" x1="27.1214" y1="30.4634" x2="25.9237" y2="32.7335" gradientUnits="userSpaceOnUse">
<stop stop-color="#00FFA3"/>
<stop offset="1" stop-color="#DC1FFF"/>
</linearGradient>
<linearGradient id="paint7_linear_2201_241" x1="27.1214" y1="30.4634" x2="25.9237" y2="32.7334" gradientUnits="userSpaceOnUse">
<stop stop-color="#00FFA3"/>
<stop offset="1" stop-color="#DC1FFF"/>
</linearGradient>
<linearGradient id="paint8_linear_2201_241" x1="36.1573" y1="33.2568" x2="31.3909" y2="38.7224" gradientUnits="userSpaceOnUse">
<stop stop-color="#19FB9B"/>
<stop offset="1" stop-color="#8C01FA"/>
</linearGradient>
<linearGradient id="paint9_linear_2201_241" x1="17.3345" y1="33.2568" x2="12.5681" y2="38.7224" gradientUnits="userSpaceOnUse">
<stop stop-color="#19FB9B"/>
<stop offset="1" stop-color="#8C01FA"/>
</linearGradient>
<linearGradient id="paint10_linear_2201_241" x1="26.8379" y1="9.09766e-07" x2="3.47333" y2="41.6132" gradientUnits="userSpaceOnUse">
<stop stop-color="#19FB9B"/>
<stop offset="1" stop-color="#8C01FA"/>
</linearGradient>
<clipPath id="clip0_2201_241">
<rect width="53" height="44" fill="white"/>
</clipPath>
</defs>
</svg>
