<svg width="156" height="156" viewBox="0 0 156 156" fill="none" xmlns="http://www.w3.org/2000/svg">
<path d="M134.211 17.3823L85.4917 53.5669L94.5011 32.2185L134.211 17.3823Z" fill="#E2761B" stroke="#E2761B" stroke-linecap="round" stroke-linejoin="round"/>
<path d="M21.7402 17.3823L70.0679 53.9096L61.4992 32.2185L21.7402 17.3823Z" fill="#E4761B" stroke="#E4761B" stroke-linecap="round" stroke-linejoin="round"/>
<path d="M116.682 101.258L103.707 121.137L131.469 128.776L139.45 101.698L116.682 101.258Z" fill="#E4761B" stroke="#E4761B" stroke-linecap="round" stroke-linejoin="round"/>
<path d="M16.5991 101.698L24.5313 128.776L52.294 121.137L39.3185 101.258L16.5991 101.698Z" fill="#E4761B" stroke="#E4761B" stroke-linecap="round" stroke-linejoin="round"/>
<path d="M50.7271 67.6685L42.9907 79.3709L70.5576 80.595L69.5783 50.9717L50.7271 67.6685Z" fill="#E4761B" stroke="#E4761B" stroke-linecap="round" stroke-linejoin="round"/>
<path d="M105.224 67.6685L86.1282 50.6289L85.4917 80.595L113.01 79.3709L105.224 67.6685Z" fill="#E4761B" stroke="#E4761B" stroke-linecap="round" stroke-linejoin="round"/>
<path d="M52.2939 121.137L68.8438 113.058L54.5463 101.895L52.2939 121.137Z" fill="#E4761B" stroke="#E4761B" stroke-linecap="round" stroke-linejoin="round"/>
<path d="M87.1074 113.058L103.706 121.137L101.405 101.895L87.1074 113.058Z" fill="#E4761B" stroke="#E4761B" stroke-linecap="round" stroke-linejoin="round"/>
<path d="M103.706 121.138L87.1074 113.059L88.4295 123.88L88.2826 128.433L103.706 121.138Z" fill="#D7C1B3" stroke="#D7C1B3" stroke-linecap="round" stroke-linejoin="round"/>
<path d="M52.2939 121.138L67.7177 128.433L67.6197 123.88L68.8438 113.059L52.2939 121.138Z" fill="#D7C1B3" stroke="#D7C1B3" stroke-linecap="round" stroke-linejoin="round"/>
<path d="M67.9622 94.7458L54.1543 90.6818L63.8982 86.2261L67.9622 94.7458Z" fill="#233447" stroke="#233447" stroke-linecap="round" stroke-linejoin="round"/>
<path d="M87.9888 94.7458L92.0528 86.2261L101.846 90.6818L87.9888 94.7458Z" fill="#233447" stroke="#233447" stroke-linecap="round" stroke-linejoin="round"/>
<path d="M52.2939 121.138L54.6442 101.258L39.3184 101.699L52.2939 121.138Z" fill="#CD6116" stroke="#CD6116" stroke-linecap="round" stroke-linejoin="round"/>
<path d="M101.356 101.258L103.706 121.138L116.682 101.699L101.356 101.258Z" fill="#CD6116" stroke="#CD6116" stroke-linecap="round" stroke-linejoin="round"/>
<path d="M113.01 79.3711L85.4917 80.5952L88.0378 94.7459L92.1019 86.2261L101.895 90.6818L113.01 79.3711Z" fill="#CD6116" stroke="#CD6116" stroke-linecap="round" stroke-linejoin="round"/>
<path d="M54.1546 90.6818L63.9474 86.2261L67.9625 94.7459L70.5576 80.5952L42.9907 79.3711L54.1546 90.6818Z" fill="#CD6116" stroke="#CD6116" stroke-linecap="round" stroke-linejoin="round"/>
<path d="M42.9907 79.3711L54.5463 101.895L54.1546 90.6818L42.9907 79.3711Z" fill="#E4751F" stroke="#E4751F" stroke-linecap="round" stroke-linejoin="round"/>
<path d="M101.895 90.6818L101.405 101.895L113.01 79.3711L101.895 90.6818Z" fill="#E4751F" stroke="#E4751F" stroke-linecap="round" stroke-linejoin="round"/>
<path d="M70.5575 80.5952L67.9624 94.7459L71.194 111.443L71.9285 89.4577L70.5575 80.5952Z" fill="#E4751F" stroke="#E4751F" stroke-linecap="round" stroke-linejoin="round"/>
<path d="M85.4915 80.5952L84.1694 89.4088L84.757 111.443L88.0376 94.7459L85.4915 80.5952Z" fill="#E4751F" stroke="#E4751F" stroke-linecap="round" stroke-linejoin="round"/>
<path d="M88.0374 94.7457L84.7568 111.442L87.1071 113.058L101.405 101.894L101.894 90.6816L88.0374 94.7457Z" fill="#F6851B" stroke="#F6851B" stroke-linecap="round" stroke-linejoin="round"/>
<path d="M54.1543 90.6816L54.546 101.894L68.8436 113.058L71.1938 111.442L67.9622 94.7457L54.1543 90.6816Z" fill="#F6851B" stroke="#F6851B" stroke-linecap="round" stroke-linejoin="round"/>
<path d="M88.2826 128.433L88.4295 123.88L87.2054 122.802H68.7459L67.6198 123.88L67.7177 128.433L52.2939 121.138L57.68 125.544L68.599 133.134H87.3523L98.3203 125.544L103.706 121.138L88.2826 128.433Z" fill="#C0AD9E" stroke="#C0AD9E" stroke-linecap="round" stroke-linejoin="round"/>
<path d="M87.1074 113.058L84.7571 111.442H71.194L68.8437 113.058L67.6196 123.879L68.7458 122.802H87.2053L88.4294 123.879L87.1074 113.058Z" fill="#161616" stroke="#161616" stroke-linecap="round" stroke-linejoin="round"/>
<path d="M136.267 55.9172L140.429 35.9398L134.211 17.3823L87.1074 52.3428L105.224 67.6686L130.832 75.1601L136.512 68.5499L134.064 66.7872L137.981 63.2128L134.945 60.8626L138.863 57.8757L136.267 55.9172Z" fill="#763D16" stroke="#763D16" stroke-linecap="round" stroke-linejoin="round"/>
<path d="M15.5708 35.9398L19.7328 55.9172L17.0887 57.8757L21.0058 60.8626L18.019 63.2128L21.9361 66.7872L19.4879 68.5499L25.1188 75.1601L50.7271 67.6686L68.8439 52.3428L21.7403 17.3823L15.5708 35.9398Z" fill="#763D16" stroke="#763D16" stroke-linecap="round" stroke-linejoin="round"/>
<path d="M130.832 75.16L105.224 67.6685L113.009 79.3709L101.405 101.894L116.682 101.699H139.45L130.832 75.16Z" fill="#F6851B" stroke="#F6851B" stroke-linecap="round" stroke-linejoin="round"/>
<path d="M50.7272 67.6685L25.1189 75.16L16.5991 101.699H39.3185L54.5464 101.894L42.9908 79.3709L50.7272 67.6685Z" fill="#F6851B" stroke="#F6851B" stroke-linecap="round" stroke-linejoin="round"/>
<path d="M85.4915 80.5949L87.1073 52.3426L94.5499 32.2183H61.499L68.8437 52.3426L70.5574 80.5949L71.145 89.5064L71.1939 111.442H84.757L84.855 89.5064L85.4915 80.5949Z" fill="#F6851B" stroke="#F6851B" stroke-linecap="round" stroke-linejoin="round"/>
</svg>
