<svg width="34" height="34" viewBox="0 0 34 34" fill="none" xmlns="http://www.w3.org/2000/svg">
<path d="M17 34C26.3888 34 34 26.3888 34 17C34 7.61116 26.3888 0 17 0C7.61116 0 0 7.61116 0 17C0 26.3888 7.61116 34 17 34Z" fill="#F3BA2F"/>
<path d="M12.2836 15.0623L16.9998 10.3461L21.7186 15.0647L24.4628 12.3204L16.9998 4.85718L9.53939 12.318L12.2836 15.0623ZM4.85718 16.9997L7.60155 14.2553L10.3457 16.9995L7.60139 19.7438L4.85718 16.9997ZM12.2836 18.9378L16.9998 23.654L21.7184 18.9355L24.4642 21.6783L24.4628 21.6798L16.9998 29.1429L9.53915 21.6823L9.53526 21.6784L12.2836 18.9378ZM23.6544 17.0012L26.3988 14.2568L29.143 17.001L26.3986 19.7454L23.6544 17.0012Z" fill="white"/>
<path d="M19.7832 16.9983H19.7844L16.9997 14.2136L14.9417 16.2716H14.9416L14.7052 16.5081L14.2175 16.9959L14.2136 16.9997L14.2175 17.0037L16.9997 19.786L19.7844 17.0013L19.7857 16.9997L19.7832 16.9983Z" fill="white"/>
</svg>
