<svg width="31" height="32" viewBox="0 0 31 32" fill="none" xmlns="http://www.w3.org/2000/svg">
<path d="M15.5 31.5C24.0604 31.5 31 24.5604 31 16C31 7.43959 24.0604 0.5 15.5 0.5C6.93959 0.5 0 7.43959 0 16C0 24.5604 6.93959 31.5 15.5 31.5Z" fill="#627EEA"/>
<path d="M15.9832 4.3728V12.966L23.2459 16.2118L15.9832 4.3728Z" fill="white" fill-opacity="0.602"/>
<path d="M15.9829 4.3728L8.72021 16.2118L15.9829 12.966V4.3728Z" fill="white"/>
<path d="M15.9832 21.7796V27.6186L23.2501 17.5635L15.9832 21.7796Z" fill="white" fill-opacity="0.602"/>
<path d="M15.9829 27.6186V21.7796L8.72021 17.5635L15.9829 27.6186Z" fill="white"/>
<path d="M15.9832 20.4279L23.2459 16.2118L15.9832 12.9661V20.4279Z" fill="white" fill-opacity="0.2"/>
<path d="M8.72021 16.2118L15.9829 20.4279V12.9661L8.72021 16.2118Z" fill="white" fill-opacity="0.602"/>
</svg>
