<svg width="46" height="24" viewBox="0 0 46 24" fill="none" xmlns="http://www.w3.org/2000/svg">
<path d="M34.8017 10.9797C34.8017 17.3972 32.4545 21.1225 32.4545 21.1225C39.3983 24.8152 45.9999 18.2342 45.9999 11.8167C45.9999 5.39924 41.9881 -2.278 30.7671 1.79179C30.7671 1.34868 34.8017 4.56221 34.8017 10.9797Z" fill="url(#paint0_linear_1_748)"/>
<path d="M43.7016 9.15803C44.8263 15.608 42.1858 18.0206 42.1858 18.0206C43.3593 17.7745 45.1197 14.6233 45.1197 11.5214C45.1197 5.10394 40.1808 -0.443187 34.1172 1.57553C34.3617 1.57553 41.7456 2.21563 43.7016 9.15803Z" fill="white" fill-opacity="0.6"/>
<path d="M35.7311 10.9305C35.7311 16.2339 33.335 20.2363 33.335 20.2363C33.7751 20.2363 42.1859 18.1191 41.7947 11.7142C41.7947 6.41086 36.709 3.34807 34.6064 4.08664C34.6064 3.72046 35.7311 5.6272 35.7311 10.9305Z" fill="#B38803"/>
<path d="M33.566 10.9905C33.566 16.2938 32.0039 21.0476 32.0039 21.0476C32.444 21.0476 39.6296 20.3349 39.6296 11.7741C39.6296 6.47082 35.2907 3.20041 33.188 3.93898C33.188 3.5728 33.566 5.68712 33.566 10.9905Z" fill="#6F570C"/>
<path d="M11.1981 10.9797C11.1981 17.3972 13.5454 21.1225 13.5454 21.1225C6.60151 24.8152 0 18.2342 0 11.8167C0 5.39924 4.01177 -2.278 15.2328 1.79179C15.2328 1.34868 11.1981 4.56221 11.1981 10.9797Z" fill="url(#paint1_linear_1_748)"/>
<path d="M2.29823 9.15803C1.17353 15.608 3.81413 18.0206 3.81413 18.0206C2.64054 17.7745 0.880127 14.6233 0.880127 11.5214C0.880127 5.10394 5.81905 -0.443187 11.8827 1.57553C11.6382 1.57553 4.25425 2.21563 2.29823 9.15803Z" fill="white" fill-opacity="0.6"/>
<path d="M10.269 10.9305C10.269 16.2339 12.6651 20.2363 12.6651 20.2363C12.225 20.2363 3.81417 18.1191 4.20537 11.7142C4.20537 6.41086 9.291 3.34807 11.3937 4.08664C11.3937 3.72046 10.269 5.6272 10.269 10.9305Z" fill="#B38803"/>
<path d="M12.434 10.9905C12.434 16.2938 13.9961 21.0476 13.9961 21.0476C13.556 21.0476 6.37036 20.3349 6.37036 11.7741C6.37036 6.47082 10.7093 3.20041 12.812 3.93898C12.812 3.5728 12.434 5.68712 12.434 10.9905Z" fill="#6F570C"/>
<path d="M37.1016 11.9849C37.1016 15.9634 34.055 23.9514 23.1658 23.9514C12.2766 23.9514 9.59204 16.6925 9.59204 11.9849C9.59204 5.6067 14.2071 -0.376516 23.1658 0.0185327C31.4006 -0.224666 37.1016 5.37608 37.1016 11.9849Z" fill="#17161B"/>
<path d="M37.1016 11.9849C37.1016 14.9917 32.215 24.7714 23.1658 23.9514C14.1166 23.1313 9.59204 16.6925 9.59204 11.9849C9.59204 5.6067 14.2071 -0.376516 23.1658 0.0185327C31.4006 -0.224666 37.1016 5.37608 37.1016 11.9849Z" fill="url(#paint2_linear_1_748)"/>
<path d="M13.1802 15.8803C10.5216 13.773 10.5418 9.08547 12.4446 6.39472C14.7877 3.39764 19.0066 2.91961 21.6653 5.02683C22.2864 5.5191 22.7715 6.05193 23.1345 6.61498C23.4975 6.05193 23.9826 5.5191 24.6037 5.02683C27.2623 2.91961 31.4814 3.39764 33.8245 6.39472C35.7272 9.08547 35.7475 13.773 33.0888 15.8803C30.1467 18.4025 26.8159 16.8745 24.5235 13.7159C24.2561 13.2925 23.1661 13.3514 23.1661 13.3514C23.1661 13.3514 22.1062 13.2925 21.8389 13.7159C19.9687 16.8138 16.1223 18.4025 13.1802 15.8803Z" fill="#B28803"/>
<path d="M24.1312 14.9612C24.1312 15.5273 23.6721 15.5079 23.1057 15.5079C22.5392 15.5079 22.0801 15.5273 22.0801 14.9612C22.0801 14.3951 23.1057 13.8679 23.1057 13.8679C23.1057 13.8679 24.1312 14.3951 24.1312 14.9612Z" fill="#17161B"/>
<path d="M17.5555 15.5079C19.6546 15.5079 21.3562 13.7946 21.3562 11.6811C21.3562 9.56758 19.6546 7.85425 17.5555 7.85425C15.4565 7.85425 13.7549 9.56758 13.7549 11.6811C13.7549 13.7946 15.4565 15.5079 17.5555 15.5079Z" fill="#D9D9D9" fill-opacity="0.5"/>
<path d="M22.1102 12.9261C21.1449 15.3862 18.0409 17.448 15.4935 16.5739C12.5482 15.6899 11.5697 12.5372 12.5482 9.64598C13.8151 6.85179 16.017 5.06771 19.037 6.10392C21.5844 6.97795 23.0887 10.0349 22.1102 12.9261Z" fill="#F1F1F1"/>
<path d="M33.4079 7.90713C34.9281 10.0647 34.8802 13.8693 32.6754 15.6168C30.2329 17.7052 27.0086 16.8673 25.1323 14.4672C23.5038 11.8683 23.2666 8.9971 25.8804 6.92534C28.0852 5.17781 31.5315 5.50701 33.4079 7.90713Z" fill="#F1F1F1"/>
<path d="M28.7162 15.5079C30.8152 15.5079 32.5169 13.7946 32.5169 11.6811C32.5169 9.56758 30.8152 7.85425 28.7162 7.85425C26.6171 7.85425 24.9155 9.56758 24.9155 11.6811C24.9155 13.7946 26.6171 15.5079 28.7162 15.5079Z" fill="url(#paint3_linear_1_748)"/>
<path d="M17.5555 15.5079C19.6546 15.5079 21.3562 13.7946 21.3562 11.6811C21.3562 9.56758 19.6546 7.85425 17.5555 7.85425C15.4565 7.85425 13.7549 9.56758 13.7549 11.6811C13.7549 13.7946 15.4565 15.5079 17.5555 15.5079Z" fill="url(#paint4_linear_1_748)"/>
<path d="M25.8808 18.3021C25.8808 18.4698 24.6248 19.5474 23.0755 19.5474C21.5262 19.5474 20.2703 18.4698 20.2703 18.3021C20.2703 18.1343 21.5262 19.1829 23.0755 19.1829C24.6248 19.1829 25.8808 18.1343 25.8808 18.3021Z" fill="#2F3640"/>
<path d="M27.7507 10.6482C28.3838 10.6482 28.897 10.1315 28.897 9.49409C28.897 8.85668 28.3838 8.33997 27.7507 8.33997C27.1177 8.33997 26.6045 8.85668 26.6045 9.49409C26.6045 10.1315 27.1177 10.6482 27.7507 10.6482Z" fill="#F1F1F1"/>
<path d="M18.581 10.6482C19.2141 10.6482 19.7273 10.1315 19.7273 9.49409C19.7273 8.85668 19.2141 8.33997 18.581 8.33997C17.948 8.33997 17.4348 8.85668 17.4348 9.49409C17.4348 10.1315 17.948 10.6482 18.581 10.6482Z" fill="#F1F1F1"/>
<defs>
<linearGradient id="paint0_linear_1_748" x1="45.9543" y1="4.09417" x2="30.7105" y2="18.3401" gradientUnits="userSpaceOnUse">
<stop stop-color="#FFC700"/>
<stop offset="1" stop-color="#E8D778"/>
</linearGradient>
<linearGradient id="paint1_linear_1_748" x1="15.1872" y1="4.09417" x2="-0.0566001" y2="18.3401" gradientUnits="userSpaceOnUse">
<stop stop-color="#FFC700"/>
<stop offset="1" stop-color="#E8D778"/>
</linearGradient>
<linearGradient id="paint2_linear_1_748" x1="28.5462" y1="-5.36495" x2="22.1697" y2="25.497" gradientUnits="userSpaceOnUse">
<stop offset="0.456624" stop-color="#FCD535"/>
<stop offset="1" stop-color="#614401"/>
</linearGradient>
<linearGradient id="paint3_linear_1_748" x1="28.7162" y1="7.85425" x2="28.7162" y2="15.5079" gradientUnits="userSpaceOnUse">
<stop stop-color="#6F4101"/>
<stop offset="1" stop-color="#995A00"/>
</linearGradient>
<linearGradient id="paint4_linear_1_748" x1="17.5555" y1="7.85425" x2="17.5555" y2="15.5079" gradientUnits="userSpaceOnUse">
<stop stop-color="#6F4101"/>
<stop offset="1" stop-color="#995A00"/>
</linearGradient>
</defs>
</svg>
