<svg width="32" height="32" viewBox="0 0 32 32" fill="none" xmlns="http://www.w3.org/2000/svg">
<rect width="32" height="32" rx="16" fill="#3E3838"/>
<path fill-rule="evenodd" clip-rule="evenodd" d="M10.75 11.6875C10.203 11.6875 9.67839 11.9048 9.29159 12.2916C8.9048 12.6784 8.6875 13.203 8.6875 13.75V20.5C8.6875 21.047 8.9048 21.5716 9.29159 21.9584C9.67839 22.3452 10.203 22.5625 10.75 22.5625H21.25C21.797 22.5625 22.3216 22.3452 22.7084 21.9584C23.0952 21.5716 23.3125 21.047 23.3125 20.5V13.75C23.3125 13.203 23.0952 12.6784 22.7084 12.2916C22.3216 11.9048 21.797 11.6875 21.25 11.6875H10.75ZM19.375 16.1875C19.1264 16.1875 18.8879 16.2863 18.7121 16.4621C18.5363 16.6379 18.4375 16.8764 18.4375 17.125C18.4375 17.3736 18.5363 17.6121 18.7121 17.7879C18.8879 17.9637 19.1264 18.0625 19.375 18.0625C19.6236 18.0625 19.8621 17.9637 20.0379 17.7879C20.2137 17.6121 20.3125 17.3736 20.3125 17.125C20.3125 16.8764 20.2137 16.6379 20.0379 16.4621C19.8621 16.2863 19.6236 16.1875 19.375 16.1875Z" fill="#81858E"/>
<path d="M19.3638 9.30156C19.5858 9.24238 19.8185 9.23502 20.0439 9.28004C20.2692 9.32506 20.4812 9.42126 20.6635 9.56121C20.8458 9.70117 20.9935 9.88113 21.0951 10.0872C21.1968 10.2933 21.2498 10.52 21.25 10.7498H13.75L19.3638 9.30156Z" fill="#81858E"/>
</svg>
    