<svg width="32" height="32" viewBox="0 0 32 32" fill="none" xmlns="http://www.w3.org/2000/svg">
<mask id="mask0_3_49" style="mask-type:alpha" maskUnits="userSpaceOnUse" x="0" y="0" width="32" height="32">
<rect width="32" height="32" fill="#D9D9D9"/>
</mask>
<g mask="url(#mask0_3_49)">
<rect width="32" height="32" rx="16" fill="#3E3838"/>
<path d="M22.3838 16.2332C22.3838 20.1073 20.997 22.3563 20.997 22.3563C25.0996 24.5856 29 20.6127 29 16.7385C29 12.8643 26.6297 8.22966 20 10.6865C20 10.419 22.3838 12.359 22.3838 16.2332Z" fill="url(#paint0_linear_3_49)"/>
<path d="M22.3838 16.2332C22.3838 20.1073 20.997 22.3563 20.997 22.3563C25.0996 24.5856 29 20.6127 29 16.7385C29 12.8643 26.6297 8.22966 20 10.6865C20 10.419 22.3838 12.359 22.3838 16.2332Z" fill="url(#paint1_linear_3_49)"/>
<path d="M27.2267 14.7455C27.84 18.5696 26.4 20 26.4 20C27.04 19.854 28 17.9858 28 16.1467C28 12.3418 25.3067 9.05302 22 10.2499C22.1333 10.2499 26.16 10.6294 27.2267 14.7455Z" fill="white" fill-opacity="0.3"/>
<path d="M23.414 16.2764C23.414 19.5383 22 22 22 22C22.2597 22 27.2231 20.6978 26.9922 16.7585C26.9922 13.4966 23.9911 11.6128 22.7503 12.0671C22.7503 11.8419 23.414 13.0146 23.414 16.2764Z" fill="#CECFCF"/>
<path d="M21.8194 16.157C21.8194 19.2381 21 22 21 22C21.2308 22 25 21.5859 25 16.6123C25 13.5312 22.7241 11.6311 21.6211 12.0602C21.6211 11.8475 21.8194 13.0759 21.8194 16.157Z" fill="#2F3640"/>
<path d="M8.61622 16.2332C8.61622 20.1073 10.003 22.3563 10.003 22.3563C5.90038 24.5856 2 20.6127 2 16.7385C2 12.8643 4.37028 8.22966 11 10.6865C11 10.419 8.61622 12.359 8.61622 16.2332Z" fill="url(#paint2_linear_3_49)"/>
<path d="M8.61622 16.2332C8.61622 20.1073 10.003 22.3563 10.003 22.3563C5.90038 24.5856 2 20.6127 2 16.7385C2 12.8643 4.37028 8.22966 11 10.6865C11 10.419 8.61622 12.359 8.61622 16.2332Z" fill="url(#paint3_linear_3_49)"/>
<path d="M2.90222 14.7455C2.18667 18.5696 3.86666 20 3.86666 20C3.12 19.854 2 17.9858 2 16.1467C2 12.3418 5.14223 9.05302 9 10.2499C8.84448 10.2499 4.14667 10.6294 2.90222 14.7455Z" fill="white" fill-opacity="0.3"/>
<path d="M7.58602 16.2764C7.58602 19.5383 9 22 9 22C8.7403 22 3.77695 20.6978 4.00781 16.7585C4.00781 13.4966 7.00891 11.6128 8.24972 12.0671C8.24972 11.8419 7.58602 13.0146 7.58602 16.2764Z" fill="#CECFCF"/>
<path d="M9.18063 16.157C9.18063 19.2381 10 22 10 22C9.76915 22 6 21.5859 6 16.6123C6 13.5312 8.27594 11.6311 9.37891 12.0602C9.37891 11.8475 9.18063 13.0759 9.18063 16.157Z" fill="#2F3640"/>
<path d="M24 17.0054C24 19.3309 22.2281 24 15.8947 24C9.5614 24 8 19.7571 8 17.0054C8 13.2772 10.6842 9.77992 15.8947 10.0108C20.6842 9.86868 24 13.1424 24 17.0054Z" fill="#17161B"/>
<path d="M24 16.9912C24 18.7452 21.1579 24.45 15.8947 23.9716C10.6316 23.4933 8 19.7373 8 16.9912C8 13.2706 10.6842 9.78037 15.8947 10.0108C20.6842 9.86894 24 13.136 24 16.9912Z" fill="url(#paint4_linear_3_49)"/>
<path d="M9.30089 19.2461C7.64519 17.989 7.65781 15.1925 8.84276 13.5872C10.3019 11.7993 12.9293 11.5141 14.585 12.7712C14.9718 13.0649 15.2739 13.3827 15.5 13.7186C15.7261 13.3827 16.0282 13.0649 16.4149 12.7712C18.0706 11.5141 20.6981 11.7993 22.1572 13.5872C23.3422 15.1925 23.3548 17.989 21.6991 19.2461C19.8669 20.7508 17.7926 19.8393 16.365 17.9549C16.1985 17.7023 15.5196 17.7374 15.5196 17.7374C15.5196 17.7374 14.8596 17.7023 14.6931 17.9549C13.5285 19.803 11.1331 20.7508 9.30089 19.2461Z" fill="#212427"/>
<path d="M16 18.6666C16 19.0118 15.7761 19 15.5 19C15.2239 19 15 19.0118 15 18.6666C15 18.3215 15.5 18 15.5 18C15.5 18 16 18.3215 16 18.6666Z" fill="#17161B"/>
<path d="M12.5 19C13.8807 19 15 17.8807 15 16.5C15 15.1193 13.8807 14 12.5 14C11.1193 14 10 15.1193 10 16.5C10 17.8807 11.1193 19 12.5 19Z" fill="#D9D9D9" fill-opacity="0.5"/>
<path d="M14.8233 17.5424C14.2572 19.1118 12.4366 20.4272 10.9426 19.8696C9.21513 19.3056 8.64122 17.2942 9.21513 15.4498C9.95816 13.6672 11.2496 12.529 13.0208 13.19C14.5149 13.7476 15.3972 15.6979 14.8233 17.5424Z" fill="#F1F1F1"/>
<path d="M21.4048 14.3288C22.2698 15.7038 22.2426 18.1285 20.988 19.2422C19.5981 20.5731 17.7634 20.0391 16.6957 18.5095C15.7691 16.8532 15.634 15.0235 17.1214 13.7031C18.376 12.5894 20.3371 12.7992 21.4048 14.3288Z" fill="#F1F1F1"/>
<path d="M19 19C20.1046 19 21 17.8807 21 16.5C21 15.1193 20.1046 14 19 14C17.8954 14 17 15.1193 17 16.5C17 17.8807 17.8954 19 19 19Z" fill="#CECFCF"/>
<path d="M12.5 19C13.8807 19 15 17.8807 15 16.5C15 15.1193 13.8807 14 12.5 14C11.1193 14 10 15.1193 10 16.5C10 17.8807 11.1193 19 12.5 19Z" fill="#CECFCF"/>
<path d="M18.5 16C18.7761 16 19 15.7761 19 15.5C19 15.2239 18.7761 15 18.5 15C18.2239 15 18 15.2239 18 15.5C18 15.7761 18.2239 16 18.5 16Z" fill="#F1F1F1"/>
<path d="M13 16C13.5523 16 14 15.7761 14 15.5C14 15.2239 13.5523 15 13 15C12.4477 15 12 15.2239 12 15.5C12 15.7761 12.4477 16 13 16Z" fill="#F1F1F1"/>
</g>
<defs>
<linearGradient id="paint0_linear_3_49" x1="29.8243" y1="10" x2="18.8138" y2="11.0972" gradientUnits="userSpaceOnUse">
<stop stop-color="#19FB9B"/>
<stop offset="1" stop-color="#8C01FA"/>
</linearGradient>
<linearGradient id="paint1_linear_3_49" x1="24.5" y1="10" x2="24.5" y2="23" gradientUnits="userSpaceOnUse">
<stop stop-color="#2F2F33"/>
<stop offset="1" stop-color="#8F8F99"/>
</linearGradient>
<linearGradient id="paint2_linear_3_49" x1="11.8243" y1="10" x2="0.813833" y2="11.0972" gradientUnits="userSpaceOnUse">
<stop stop-color="#19FB9B"/>
<stop offset="1" stop-color="#8C01FA"/>
</linearGradient>
<linearGradient id="paint3_linear_3_49" x1="6.5" y1="10" x2="6.5" y2="23" gradientUnits="userSpaceOnUse">
<stop stop-color="#2F2F33"/>
<stop offset="1" stop-color="#8F8F99"/>
</linearGradient>
<linearGradient id="paint4_linear_3_49" x1="16" y1="10" x2="16" y2="24" gradientUnits="userSpaceOnUse">
<stop stop-color="#2F2F33"/>
<stop offset="1" stop-color="#8F8F99"/>
</linearGradient>
</defs>
</svg>
