<svg width="10" height="10" viewBox="0 0 10 10" fill="none" xmlns="http://www.w3.org/2000/svg">
<path d="M8.74996 2.08341L1.24996 2.08341C1.17403 2.08365 1.0996 2.10459 1.03468 2.14399C0.969766 2.18338 0.916823 2.23973 0.88155 2.30697C0.846278 2.37422 0.830013 2.44981 0.834506 2.52561C0.838998 2.60141 0.864079 2.67455 0.907049 2.73716L4.65705 8.15383C4.81246 8.37841 5.18663 8.37841 5.34246 8.15383L9.09246 2.73716C9.13587 2.67468 9.16133 2.60151 9.16606 2.52558C9.1708 2.44965 9.15464 2.37388 9.11933 2.30649C9.08403 2.2391 9.03093 2.18268 8.96581 2.14335C8.90069 2.10402 8.82604 2.08329 8.74996 2.08341Z" fill="#81858E"/>
</svg>
