<svg width="32" height="32" viewBox="0 0 32 32" fill="none" xmlns="http://www.w3.org/2000/svg">
<rect width="32" height="32" rx="16" fill="#3E3838"/>
<g clip-path="url(#clip0_235_2905)">
<path d="M23.7451 8L16.3896 13.4186L17.7575 10.2253L23.7451 8Z" fill="#E17726"/>
<path d="M7.41481 8.00635L13.3865 10.2256L14.6852 13.4608L7.41481 8.00635ZM20.7848 19.5238L24.0359 19.5854L22.8997 23.4282L18.9327 22.3408L20.7848 19.5238ZM10.3576 19.5238L12.2029 22.3408L8.24258 23.4283L7.11328 19.5854L10.3576 19.5238Z" fill="#E27625"/>
<path d="M14.5087 12.637L14.6416 16.9092L10.666 16.7292L11.7969 15.0306L11.8112 15.0143L14.5087 12.637ZM16.5927 12.5894L19.3314 15.0144L19.3456 15.0307L20.4765 16.7292L16.5018 16.9092L16.5927 12.5894ZM12.3194 19.5365L14.4901 21.2204L11.9685 22.4325L12.3194 19.5365ZM18.8237 19.5362L19.1673 22.4326L16.6527 21.2203L18.8237 19.5362Z" fill="#E27625"/>
<path d="M16.7084 21.0615L19.26 22.2917L16.8865 23.4147L16.9111 22.6725L16.7084 21.0615ZM14.4339 21.0621L14.2391 22.6603L14.2551 23.4139L11.876 22.2917L14.4339 21.0621Z" fill="#D5BFB2"/>
<path d="M13.6971 17.4668L14.3639 18.862L12.0938 18.1999L13.6971 17.4668ZM17.4459 17.4669L19.0569 18.1999L16.7793 18.8618L17.4459 17.4669Z" fill="#233447"/>
<path d="M12.493 19.5219L12.126 22.5246L10.1592 19.5876L12.493 19.5219ZM18.65 19.522L20.9839 19.5876L19.0097 22.5247L18.65 19.522ZM20.5341 16.5591L18.8356 18.2825L17.526 17.6867L16.8991 18.9989L16.4881 16.7423L20.5341 16.5591ZM10.608 16.5591L14.6547 16.7423L14.2437 18.9989L13.6166 17.6869L12.314 18.2825L10.608 16.5591Z" fill="#CC6228"/>
<path d="M10.4937 16.2056L12.4153 18.147L12.4819 20.0636L10.4937 16.2056ZM20.6514 16.2021L18.6596 20.067L18.7346 18.147L20.6514 16.2021ZM14.5609 16.3239L14.6383 16.8085L14.8294 18.0159L14.7065 21.7243L14.1256 18.7453L14.1254 18.7145L14.5609 16.3239ZM16.5812 16.3171L17.0179 18.7145L17.0177 18.7453L16.4353 21.7317L16.4123 20.9847L16.3214 17.9939L16.5812 16.3171Z" fill="#E27525"/>
<path d="M18.9053 18.0698L18.8403 19.735L16.8131 21.3075L16.4033 21.0192L16.8627 18.6636L18.9053 18.0698ZM12.2446 18.0698L14.2802 18.6636L14.7395 21.0192L14.3297 21.3075L12.3025 19.7349L12.2446 18.0698Z" fill="#F5841F"/>
<path d="M11.4878 21.9238L14.0813 23.1473L14.0703 22.6248L14.2874 22.4352H16.8542L17.0791 22.6242L17.0625 23.1462L19.6396 21.9269L18.3856 22.9586L16.8692 23.9955H14.2665L12.7512 22.9544L11.4878 21.9238Z" fill="#C0AC9D"/>
<path d="M16.5224 20.8984L16.889 21.1564L17.1039 22.8633L16.793 22.6019H14.3505L14.0454 22.8686L14.2533 21.1565L14.6201 20.8984H16.5224Z" fill="#161616"/>
<path d="M23.2596 8.1499L24.1425 10.787L23.5911 13.4535L23.9837 13.755L23.4524 14.1586L23.8518 14.4657L23.323 14.9451L23.6476 15.1792L22.7861 16.1809L19.2525 15.1566L19.2219 15.1402L16.6756 13.0017L23.2596 8.1499ZM7.88344 8.1499L14.4674 13.0017L11.9211 15.1402L11.8905 15.1566L8.35692 16.1809L7.4954 15.1792L7.81976 14.9453L7.2913 14.4657L7.68985 14.159L7.15055 13.7542L7.55801 13.4525L7.00049 10.7872L7.88344 8.1499Z" fill="#763E1A"/>
<path d="M19.0799 14.9327L22.8239 16.018L24.0402 19.7504H20.8312L18.6201 19.7781L20.2281 16.6576L19.0799 14.9327ZM12.0634 14.9327L10.915 16.6576L12.5232 19.7781L10.3131 19.7504H7.10986L8.31938 16.0181L12.0634 14.9327ZM17.941 10.2075L16.8938 13.0235L16.6716 16.8275L16.5865 18.0198L16.5798 21.0657H14.5635L14.5569 18.0255L14.4716 16.8265L14.2493 13.0235L13.2022 10.2075H17.941Z" fill="#F5841F"/>
</g>
<defs>
<clipPath id="clip0_235_2905">
<rect width="17.1429" height="16" fill="white" transform="translate(7 8)"/>
</clipPath>
</defs>
</svg>
