<svg width="46" height="24" viewBox="0 0 46 24" fill="none" xmlns="http://www.w3.org/2000/svg">
<path d="M34.8017 10.9798C34.8017 17.3973 32.4545 21.1226 32.4545 21.1226C39.3983 24.8154 45.9999 18.2343 45.9999 11.8169C45.9999 5.39936 41.9881 -2.27787 30.7671 1.79192C30.7671 1.34881 34.8017 4.56234 34.8017 10.9798Z" fill="url(#paint0_linear_1_419)"/>
<path d="M43.7016 9.15809C44.8263 15.6081 42.1858 18.0207 42.1858 18.0207C43.3593 17.7745 45.1197 14.6234 45.1197 11.5215C45.1197 5.104 40.1808 -0.443126 34.1172 1.57559C34.3617 1.57559 41.7456 2.21569 43.7016 9.15809Z" fill="white" fill-opacity="0.3"/>
<path d="M35.7311 10.9306C35.7311 16.2339 33.335 20.2364 33.335 20.2364C33.7751 20.2364 42.1859 18.1192 41.7947 11.7143C41.7947 6.41092 36.709 3.34813 34.6064 4.0867C34.6064 3.72052 35.7311 5.62726 35.7311 10.9306Z" fill="#2D63A1"/>
<path d="M33.566 10.9905C33.566 16.2938 32.0039 21.0476 32.0039 21.0476C32.444 21.0476 39.6296 20.3349 39.6296 11.7741C39.6296 6.47082 35.2907 3.20041 33.188 3.93898C33.188 3.5728 33.566 5.68712 33.566 10.9905Z" fill="#183555"/>
<path d="M11.1981 10.9798C11.1981 17.3973 13.5454 21.1226 13.5454 21.1226C6.60151 24.8154 0 18.2343 0 11.8169C0 5.39936 4.01177 -2.27787 15.2328 1.79192C15.2328 1.34881 11.1981 4.56234 11.1981 10.9798Z" fill="url(#paint1_linear_1_419)"/>
<path d="M2.29823 9.15809C1.17353 15.6081 3.81413 18.0207 3.81413 18.0207C2.64054 17.7745 0.880127 14.6234 0.880127 11.5215C0.880127 5.104 5.81905 -0.443126 11.8827 1.57559C11.6382 1.57559 4.25425 2.21569 2.29823 9.15809Z" fill="white" fill-opacity="0.3"/>
<path d="M10.269 10.9306C10.269 16.2339 12.6651 20.2364 12.6651 20.2364C12.225 20.2364 3.81417 18.1192 4.20537 11.7143C4.20537 6.41092 9.291 3.34813 11.3937 4.0867C11.3937 3.72052 10.269 5.62726 10.269 10.9306Z" fill="#2D63A1"/>
<path d="M12.434 10.9905C12.434 16.2938 13.9961 21.0476 13.9961 21.0476C13.556 21.0476 6.37036 20.3349 6.37036 11.7741C6.37036 6.47082 10.7093 3.20041 12.812 3.93898C12.812 3.5728 12.434 5.68712 12.434 10.9905Z" fill="#183555"/>
<path d="M37.1016 11.9849C37.1016 15.9634 34.055 23.9514 23.1658 23.9514C12.2766 23.9514 9.59204 16.6925 9.59204 11.9849C9.59204 5.6067 14.2071 -0.376516 23.1658 0.0185327C31.4006 -0.224666 37.1016 5.37608 37.1016 11.9849Z" fill="#10052F"/>
<path d="M37.1016 11.9849C37.1016 14.9917 32.215 24.7714 23.1658 23.9514C14.1166 23.1313 9.59204 16.6925 9.59204 11.9849C9.59204 5.6067 14.2071 -0.376516 23.1658 0.0185327C31.4006 -0.224666 37.1016 5.37608 37.1016 11.9849Z" fill="url(#paint2_linear_1_419)"/>
<path d="M13.1802 15.8803C10.5216 13.7731 10.5418 9.08553 12.4446 6.39478C14.7877 3.3977 19.0066 2.91968 21.6653 5.0269C22.2864 5.51916 22.7715 6.05199 23.1345 6.61504C23.4975 6.05199 23.9826 5.51916 24.6037 5.0269C27.2623 2.91968 31.4814 3.3977 33.8245 6.39478C35.7272 9.08553 35.7475 13.7731 33.0888 15.8803C30.1467 18.4026 26.8159 16.8746 24.5235 13.7159C24.2561 13.2926 23.1661 13.3515 23.1661 13.3515C23.1661 13.3515 22.1062 13.2926 21.8389 13.7159C19.9687 16.8138 16.1223 18.4026 13.1802 15.8803Z" fill="#2D63A1"/>
<path d="M24.1312 14.9611C24.1312 15.5272 23.6721 15.5077 23.1057 15.5077C22.5392 15.5077 22.0801 15.5272 22.0801 14.9611C22.0801 14.395 23.1057 13.8678 23.1057 13.8678C23.1057 13.8678 24.1312 14.395 24.1312 14.9611Z" fill="#10052F"/>
<path d="M17.5555 15.5079C19.6546 15.5079 21.3562 13.7946 21.3562 11.6811C21.3562 9.56758 19.6546 7.85425 17.5555 7.85425C15.4565 7.85425 13.7549 9.56758 13.7549 11.6811C13.7549 13.7946 15.4565 15.5079 17.5555 15.5079Z" fill="#D9D9D9" fill-opacity="0.5"/>
<path d="M22.1102 12.9263C21.1449 15.3864 18.0409 17.4481 15.4935 16.5741C12.5482 15.6901 11.5697 12.5374 12.5482 9.64616C13.8151 6.85197 16.017 5.06789 19.037 6.1041C21.5844 6.97813 23.0887 10.035 22.1102 12.9263Z" fill="#FFEDED"/>
<path d="M33.4079 7.90731C34.9281 10.0648 34.8802 13.8695 32.6754 15.617C30.2329 17.7054 27.0086 16.8675 25.1323 14.4674C23.5038 11.8684 23.2666 8.99729 25.8804 6.92552C28.0852 5.178 31.5315 5.50719 33.4079 7.90731Z" fill="#FFEDED"/>
<path d="M28.7162 15.5079C30.8152 15.5079 32.5169 13.7946 32.5169 11.6811C32.5169 9.56758 30.8152 7.85425 28.7162 7.85425C26.6171 7.85425 24.9155 9.56758 24.9155 11.6811C24.9155 13.7946 26.6171 15.5079 28.7162 15.5079Z" fill="#41D1FF"/>
<path d="M17.5555 15.5079C19.6546 15.5079 21.3562 13.7946 21.3562 11.6811C21.3562 9.56758 19.6546 7.85425 17.5555 7.85425C15.4565 7.85425 13.7549 9.56758 13.7549 11.6811C13.7549 13.7946 15.4565 15.5079 17.5555 15.5079Z" fill="#41D1FF"/>
<path d="M25.8808 18.3021C25.8808 18.4698 24.6248 19.5473 23.0755 19.5473C21.5262 19.5473 20.2703 18.4698 20.2703 18.3021C20.2703 18.1343 21.5262 19.1828 23.0755 19.1828C24.6248 19.1828 25.8808 18.1343 25.8808 18.3021Z" fill="#172F50"/>
<path d="M27.7507 10.6484C28.3838 10.6484 28.897 10.1317 28.897 9.49427C28.897 8.85687 28.3838 8.34015 27.7507 8.34015C27.1177 8.34015 26.6045 8.85687 26.6045 9.49427C26.6045 10.1317 27.1177 10.6484 27.7507 10.6484Z" fill="#FFEDED"/>
<path d="M18.581 10.6484C19.2141 10.6484 19.7273 10.1317 19.7273 9.49427C19.7273 8.85687 19.2141 8.34015 18.581 8.34015C17.948 8.34015 17.4348 8.85687 17.4348 9.49427C17.4348 10.1317 17.948 10.6484 18.581 10.6484Z" fill="#FFEDED"/>
<defs>
<linearGradient id="paint0_linear_1_419" x1="47.395" y1="0.654664" x2="28.7675" y2="2.55138" gradientUnits="userSpaceOnUse">
<stop stop-color="#19FB9B"/>
<stop offset="1" stop-color="#8C01FA"/>
</linearGradient>
<linearGradient id="paint1_linear_1_419" x1="16.628" y1="0.654664" x2="-1.99956" y2="2.55138" gradientUnits="userSpaceOnUse">
<stop stop-color="#19FB9B"/>
<stop offset="1" stop-color="#8C01FA"/>
</linearGradient>
<linearGradient id="paint2_linear_1_419" x1="23.3085" y1="7.86229e-07" x2="3.16869" y2="36.0476" gradientUnits="userSpaceOnUse">
<stop stop-color="#19FB9B"/>
<stop offset="1" stop-color="#8C01FA"/>
</linearGradient>
</defs>
</svg>
