<svg width="55" height="45" viewBox="0 0 55 45" fill="none" xmlns="http://www.w3.org/2000/svg">
<g clip-path="url(#clip0_235_3600)">
<path d="M40.9961 12.8826C40.9961 20.4123 38.2311 24.7832 38.2311 24.7832C46.4108 29.1159 54.1873 21.3944 54.1873 13.8647C54.1873 6.33504 49.4615 -2.67269 36.2433 2.10241C36.2433 1.58251 40.9961 5.35296 40.9961 12.8826Z" fill="url(#paint0_linear_235_3600)"/>
<path d="M40.9961 12.8826C40.9961 20.4123 38.2311 24.7832 38.2311 24.7832C46.4108 29.1159 54.1873 21.3944 54.1873 13.8647C54.1873 6.33504 49.4615 -2.67269 36.2433 2.10241C36.2433 1.58251 40.9961 5.35296 40.9961 12.8826Z" fill="url(#paint1_linear_235_3600)"/>
<path d="M51.4799 10.7451C52.8048 18.3129 49.6943 21.1437 49.6943 21.1437C51.0767 20.8548 53.1505 17.1576 53.1505 13.5181C53.1505 5.98842 47.3325 -0.520044 40.1896 1.84852C40.4777 1.84852 49.1758 2.59955 51.4799 10.7451Z" fill="white" fill-opacity="0.3"/>
<path d="M42.0906 12.825C42.0906 19.0474 39.268 23.7435 39.268 23.7435C39.7864 23.7435 49.6943 21.2594 49.2334 13.7445C49.2334 7.52201 43.2426 3.92843 40.7657 4.795C40.7657 4.36536 42.0906 6.60255 42.0906 12.825Z" fill="#CECFCF"/>
<path d="M39.5403 12.8952C39.5403 19.1176 37.7002 24.6952 37.7002 24.6952C38.2186 24.6952 46.6832 23.859 46.6832 13.8146C46.6832 7.59223 41.572 3.75504 39.0951 4.62161C39.0951 4.19197 39.5403 6.67272 39.5403 12.8952Z" fill="#2F3640"/>
<path d="M13.4121 12.8826C13.4121 20.4123 16.1771 24.7832 16.1771 24.7832C7.99736 29.1159 0.220886 21.3944 0.220886 13.8647C0.220886 6.33504 4.94669 -2.67269 18.1648 2.10241C18.1648 1.58251 13.4121 5.35296 13.4121 12.8826Z" fill="url(#paint2_linear_235_3600)"/>
<path d="M13.4121 12.8826C13.4121 20.4123 16.1771 24.7832 16.1771 24.7832C7.99736 29.1159 0.220886 21.3944 0.220886 13.8647C0.220886 6.33504 4.94669 -2.67269 18.1648 2.10241C18.1648 1.58251 13.4121 5.35296 13.4121 12.8826Z" fill="url(#paint3_linear_235_3600)"/>
<path d="M2.70737 10.7451C1.38249 18.3129 4.49307 21.1437 4.49307 21.1437C3.1106 20.8548 1.03687 17.1576 1.03687 13.5181C1.03687 5.98842 6.85484 -0.520044 13.9977 1.84852C13.7097 1.84852 5.01153 2.59955 2.70737 10.7451Z" fill="white" fill-opacity="0.3"/>
<path d="M12.0968 12.825C12.0968 19.0474 14.9194 23.7435 14.9194 23.7435C14.4009 23.7435 4.49311 21.2594 4.95394 13.7445C4.95394 7.52201 10.9447 3.92843 13.4217 4.795C13.4217 4.36536 12.0968 6.60255 12.0968 12.825Z" fill="#CECFCF"/>
<path d="M14.647 12.8952C14.647 19.1176 16.4871 24.6952 16.4871 24.6952C15.9687 24.6952 7.50415 23.859 7.50415 13.8146C7.50415 7.59223 12.6153 3.75504 15.0923 4.62161C15.0923 4.19197 14.647 6.67272 14.647 12.8952Z" fill="#2F3640"/>
<path d="M19.081 34.7832C18.7398 31.8277 20.3124 27.7274 20.68 27.3354C22.6714 25.2117 27.8221 25.233 27.8221 25.233C27.8221 25.233 32.8506 25.0556 34.0047 27.3354C35.1773 29.6517 35.7021 31.6256 35.6748 34.4981C35.6434 37.805 33.4234 42.4725 32.4058 43.6563C31.5175 44.6897 29.4759 44.8323 28.5682 44.0839C27.6607 43.3356 27.4822 42.3358 27.8221 41.2331C29.0302 37.3133 32.1926 32.36 30.8423 29.0815C29.9925 27.0181 28.1774 26.9434 27.0048 26.9434C25.4765 26.9434 23.416 28.3618 23.416 30.6139C23.416 34.7832 27.6617 39.5633 26.7916 42.908C26.5784 43.7276 25.6191 44.4759 25.015 44.4759C24.4109 44.4759 22.4567 44.4759 21.817 43.1931C20.2716 40.0936 19.4719 38.1685 19.081 34.7832Z" fill="url(#paint4_linear_235_3600)"/>
<path d="M32.4769 31.2927C32.4769 33.8757 29.0851 40.3066 27.5196 40.3066C25.9542 40.3066 22.4581 34.4028 22.1971 31.978C21.9362 29.5532 23.7537 26.3376 27.1543 26.3376C30.555 26.3376 32.4769 29.0788 32.4769 31.2927Z" fill="url(#paint5_linear_235_3600)"/>
<path d="M30.8424 31.9679C30.8424 33.714 28.5327 38.0615 27.4668 38.0615C26.4008 38.0615 24.0201 34.0703 23.8424 32.4311C23.6648 30.7919 24.9024 28.6182 27.218 28.6182C29.5336 28.6182 30.8424 30.4712 30.8424 31.9679Z" fill="white"/>
<ellipse cx="2.22249" cy="2.27503" rx="2.22249" ry="2.27503" transform="matrix(0.965822 0.259206 -0.258432 0.966029 25.7504 29.4758)" fill="url(#paint6_linear_235_3600)"/>
<path d="M27.7041 42.7356C27.4295 41.7257 28.2967 39.9163 28.2967 39.9163C28.2967 39.9163 28.1359 40.8042 28.2478 41.5894C28.3899 42.5872 29.2072 43.2999 29.2072 43.2999C29.2072 43.2999 28.6742 43.1574 28.6742 43.2999C28.6742 43.3653 28.8987 43.6589 29.2782 43.9057C29.7259 44.1968 30.5122 44.515 30.416 44.5471C30.3094 44.5828 29.3677 44.5558 28.8893 44.3184C28.1604 43.9569 27.9173 43.5196 27.7041 42.7356Z" fill="#17161B"/>
<path d="M27.0166 42.6485C27.2912 41.6386 26.5189 39.7678 26.5189 39.7678C26.5189 39.7678 26.5848 40.717 26.4729 41.5023C26.3308 42.5 25.5135 43.2127 25.5135 43.2127C25.5135 43.2127 26.0465 43.0702 26.0465 43.2127C26.0465 43.2782 25.822 43.5717 25.4425 43.8185C24.9948 44.1097 24.2085 44.4278 24.3047 44.46C24.4113 44.4956 25.353 44.4687 25.8314 44.2313C26.5603 43.8697 26.8034 43.4324 27.0166 42.6485Z" fill="#17161B"/>
<path d="M37.9845 33.7496C37.0791 33.6021 35.6748 34.0703 35.6748 34.5336C35.6749 37.0181 34.218 40.1639 33.5074 42.0526C33.2732 42.675 34.1962 43.0362 34.8576 43.086C36.2787 43.1929 38.1976 43.4035 38.8728 43.086C39.7412 42.6777 39.8054 41.8804 40.152 40.9835C40.6065 39.8076 40.71 37.0547 40.152 35.959C39.5939 34.8633 39.1955 33.9469 37.9845 33.7496Z" fill="url(#paint7_linear_235_3600)"/>
<path d="M37.1671 37.8121C36.1368 37.8083 34.7864 38.9524 34.7864 38.9524C34.7864 38.9524 35.2155 37.5765 35.3904 36.6718C35.5582 35.8041 35.6747 34.4268 35.6747 34.4268C35.6747 34.4268 35.9762 34.3562 36.1011 34.6762C36.4663 35.6116 35.5448 37.6696 35.7458 37.6696C35.8524 37.6696 36.4384 37.2283 36.9894 37.1707C37.5957 37.1072 37.9747 37.2127 38.5173 37.4914C39.1199 37.801 39.4211 38.1157 39.761 38.703C40.2191 39.4945 40.3295 41.0193 40.1163 41.0193C40.1163 41.0193 39.7965 40.0571 39.761 39.9146C39.6731 39.562 39.5478 38.9524 38.766 38.2754C38.2741 37.8493 37.817 37.8145 37.1671 37.8121Z" fill="#FFEDED" fill-opacity="0.7"/>
<path d="M35.0708 43.2967C35.0708 43.2967 33.0453 42.9048 33.1163 42.584C33.1681 42.3507 34.6798 39.487 34.6088 39.8077C34.4236 40.6435 34.0758 41.5538 34.289 42.0171C34.3721 42.1977 34.8763 40.2385 35.7814 39.7008C36.437 39.3113 37.2344 39.2297 37.6291 39.3088C38.162 39.4157 38.3397 40.0571 38.3397 40.0571C38.3397 40.0571 39.2572 39.945 39.5123 40.3422C39.6642 40.5788 39.6189 41.0549 39.6189 41.0549C39.6189 41.0549 40.2829 41.0251 40.4006 41.34C40.6138 41.9102 40.2908 42.4902 39.7966 42.8367C38.9264 43.4468 35.0664 43.2524 35.0708 43.2967Z" fill="#CECFCF"/>
<path d="M38.2277 40.5998C38.129 40.9604 37.8198 41.1897 37.537 41.1118C37.2542 41.034 37.0685 40.5958 37.1671 40.2352C37.2658 39.8746 37.6115 39.7281 37.8943 39.806C38.1771 39.8838 38.3263 40.2391 38.2277 40.5998Z" fill="#17161B"/>
<path d="M39.5123 41.0192C39.4074 41.4026 38.903 41.6527 38.5889 41.5663C38.2746 41.4798 38.105 41.0989 38.2099 40.7156C38.3147 40.3322 38.6545 40.0915 38.9686 40.178C39.2828 40.2644 39.6172 40.6358 39.5123 41.0192Z" fill="#17161B"/>
<path d="M40.312 41.8954C40.2332 42.1834 39.9892 42.3035 39.7254 42.2308C39.4617 42.1583 39.2558 41.8774 39.3346 41.5894C39.4134 41.3014 39.7133 41.17 39.9771 41.2425C40.2408 41.3151 40.3907 41.6074 40.312 41.8954Z" fill="#17161B"/>
<path d="M37.8778 40.5204C38.0348 40.5204 38.162 40.3927 38.162 40.2353C38.162 40.0778 38.0348 39.9502 37.8778 39.9502C37.7208 39.9502 37.5935 40.0778 37.5935 40.2353C37.5935 40.3927 37.7208 40.5204 37.8778 40.5204Z" fill="#D9D9D9" fill-opacity="0.6"/>
<path d="M38.9437 41.1617C39.1007 41.1617 39.2279 41.0341 39.2279 40.8766C39.2279 40.7192 39.1007 40.5916 38.9437 40.5916C38.7867 40.5916 38.6594 40.7192 38.6594 40.8766C38.6594 41.0341 38.7867 41.1617 38.9437 41.1617Z" fill="#D9D9D9" fill-opacity="0.6"/>
<path d="M39.8676 41.8746C40.0246 41.8746 40.1518 41.747 40.1518 41.5895C40.1518 41.4321 40.0246 41.3044 39.8676 41.3044C39.7106 41.3044 39.5833 41.4321 39.5833 41.5895C39.5833 41.747 39.7106 41.8746 39.8676 41.8746Z" fill="#D9D9D9" fill-opacity="0.6"/>
<path d="M37.1316 41.2687C37.5224 41.1975 37.9488 41.1975 38.0554 40.948C38.1163 40.8055 38.2056 41.4466 38.5174 41.5895C38.7962 41.7172 39.2991 41.3756 39.2991 41.5182C39.2991 41.6607 39.3302 42.1344 39.6189 42.2309C40.0452 42.3734 40.1199 42.0224 40.2585 42.2309C40.3295 42.3378 39.9963 42.7543 39.6189 42.9436C38.9793 43.2643 38.4986 43.2038 37.7001 43.2643C36.6896 43.3409 35.4615 43.4069 34.8931 43.2643C34.706 43.2174 34.5771 43.102 34.4667 42.9436C34.3162 42.7279 34.4301 42.5091 34.5362 42.3049L34.5377 42.3022C34.9641 41.4826 36.0183 41.4717 37.1316 41.2687Z" fill="#212427"/>
<path d="M36.2077 35.6026C36.0656 35.8877 35.9721 36.5806 35.8169 37.2062C35.7754 37.3733 35.7103 37.6338 35.7103 37.6338C35.7103 37.6338 35.9667 37.5163 36.1367 37.4557L36.1437 37.4532C36.7351 37.2423 37.114 37.1072 37.7356 37.2062C38.3486 37.3039 38.6966 37.5016 39.1569 37.9189C39.6196 38.3383 40.0097 39.2731 40.0097 39.2731C40.0097 39.2731 39.9743 38.3261 39.8321 37.7407C39.6465 36.9774 39.4767 36.4935 39.0503 35.8877C38.6523 35.3223 38.2126 34.9943 37.5224 34.9968C36.9575 34.999 36.4604 35.0958 36.2077 35.6026Z" fill="#2F3640"/>
<path d="M16.7613 33.7496C17.6666 33.6021 19.0709 34.0703 19.0709 34.5336C19.0709 37.0181 20.5277 40.1639 21.2384 42.0526C21.4725 42.675 20.5496 43.0362 19.8881 43.086C18.467 43.1929 16.5481 43.4035 15.8729 43.086C15.0046 42.6777 14.9403 41.8804 14.5938 40.9835C14.1392 39.8076 14.0358 37.0547 14.5938 35.959C15.1518 34.8633 15.5503 33.9469 16.7613 33.7496Z" fill="url(#paint8_linear_235_3600)"/>
<path d="M17.5787 37.8121C18.609 37.8083 19.9594 38.9524 19.9594 38.9524C19.9594 38.9524 19.5303 37.5765 19.3553 36.6718C19.1875 35.8041 19.071 34.4268 19.071 34.4268C19.071 34.4268 18.7697 34.3562 18.6447 34.6762C18.2794 35.6116 19.201 37.6696 19 37.6696C18.8934 37.6696 18.3074 37.2283 17.7563 37.1707C17.15 37.1072 16.771 37.2127 16.2284 37.4914C15.6258 37.801 15.3247 38.1157 14.9848 38.703C14.5267 39.4945 14.4163 41.0193 14.6295 41.0193C14.6295 41.0193 14.9492 40.0571 14.9848 39.9146C15.0727 39.562 15.198 38.9524 15.9797 38.2754C16.4716 37.8493 16.9287 37.8145 17.5787 37.8121Z" fill="#FFEDED" fill-opacity="0.7"/>
<path d="M19.6749 43.2967C19.6749 43.2967 21.7005 42.9048 21.6294 42.584C21.5777 42.3507 20.0659 39.487 20.137 39.8077C20.3222 40.6435 20.67 41.5538 20.4568 42.0171C20.3737 42.1977 19.8694 40.2385 18.9644 39.7008C18.3088 39.3113 17.5114 39.2297 17.1167 39.3088C16.5837 39.4157 16.4061 40.0571 16.4061 40.0571C16.4061 40.0571 15.4885 39.945 15.2335 40.3422C15.0816 40.5788 15.1269 41.0549 15.1269 41.0549C15.1269 41.0549 14.4629 41.0251 14.3452 41.34C14.132 41.9102 14.4549 42.4902 14.9492 42.8367C15.8194 43.4468 19.6793 43.2524 19.6749 43.2967Z" fill="#CECFCF"/>
<path d="M16.5182 40.5998C16.6168 40.9604 16.926 41.1897 17.2088 41.1118C17.4916 41.034 17.6773 40.5958 17.5787 40.2352C17.48 39.8746 17.1343 39.7281 16.8515 39.806C16.5688 39.8838 16.4195 40.2391 16.5182 40.5998Z" fill="#17161B"/>
<path d="M15.2335 41.0192C15.3384 41.4026 15.8428 41.6527 16.157 41.5663C16.4712 41.4798 16.6409 41.0989 16.536 40.7156C16.4311 40.3322 16.0914 40.0915 15.7772 40.178C15.463 40.2644 15.1286 40.6358 15.2335 41.0192Z" fill="#17161B"/>
<path d="M14.4338 41.8954C14.5126 42.1834 14.7566 42.3035 15.0203 42.2308C15.2841 42.1583 15.49 41.8774 15.4112 41.5894C15.3324 41.3014 15.0325 41.17 14.7688 41.2425C14.505 41.3151 14.355 41.6074 14.4338 41.8954Z" fill="#17161B"/>
<path d="M16.868 40.536C16.711 40.536 16.5838 40.4083 16.5838 40.2509C16.5838 40.0935 16.711 39.9658 16.868 39.9658C17.025 39.9658 17.1523 40.0935 17.1523 40.2509C17.1523 40.4083 17.025 40.536 16.868 40.536Z" fill="#D9D9D9" fill-opacity="0.6"/>
<path d="M15.802 41.1773C15.645 41.1773 15.5178 41.0497 15.5178 40.8923C15.5178 40.7348 15.645 40.6072 15.802 40.6072C15.959 40.6072 16.0863 40.7348 16.0863 40.8923C16.0863 41.0497 15.959 41.1773 15.802 41.1773Z" fill="#D9D9D9" fill-opacity="0.6"/>
<path d="M14.8782 41.89C14.7212 41.89 14.594 41.7624 14.594 41.6049C14.594 41.4475 14.7212 41.3198 14.8782 41.3198C15.0352 41.3198 15.1625 41.4475 15.1625 41.6049C15.1625 41.7624 15.0352 41.89 14.8782 41.89Z" fill="#D9D9D9" fill-opacity="0.6"/>
<path d="M17.6142 41.2687C17.2234 41.1975 16.797 41.1975 16.6904 40.948C16.6295 40.8055 16.5401 41.4466 16.2285 41.5895C15.9496 41.7172 15.4467 41.3756 15.4467 41.5182C15.4467 41.6607 15.4156 42.1344 15.1269 42.2309C14.7005 42.3734 14.6259 42.0224 14.4874 42.2309C14.4163 42.3378 14.7494 42.7543 15.1269 42.9436C15.7665 43.2643 16.2472 43.2038 17.0457 43.2643C18.0562 43.3409 19.2843 43.4069 19.8528 43.2643C20.0398 43.2174 20.1687 43.102 20.2792 42.9436C20.4296 42.7279 20.3158 42.5091 20.2095 42.3049L20.2081 42.3022C19.7817 41.4826 18.7275 41.4717 17.6142 41.2687Z" fill="#212427"/>
<path d="M18.5381 35.6026C18.6802 35.8877 18.7737 36.5806 18.9289 37.2062C18.9704 37.3733 19.0355 37.6338 19.0355 37.6338C19.0355 37.6338 18.7791 37.5163 18.6092 37.4557L18.6021 37.4532C18.0107 37.2423 17.6319 37.1072 17.0102 37.2062C16.3973 37.3039 16.0493 37.5016 15.5889 37.9189C15.1262 38.3383 14.7361 39.2731 14.7361 39.2731C14.7361 39.2731 14.7715 38.3261 14.9137 37.7407C15.0993 36.9774 15.2691 36.4935 15.6955 35.8877C16.0935 35.3223 16.5332 34.9943 17.2234 34.9968C17.7884 34.999 18.2854 35.0958 18.5381 35.6026Z" fill="#2F3640"/>
<path d="M43.7052 14.062C43.7052 18.73 40.1164 28.1022 27.2891 28.1022C14.4618 28.1022 11.2994 19.5854 11.2994 14.062C11.2994 6.57836 16.7359 -0.441767 27.2891 0.0217445C36.9895 -0.263601 43.7052 6.30778 43.7052 14.062Z" fill="#17161B"/>
<path d="M43.7052 14.062C43.7052 17.5899 37.9489 29.0644 27.2891 28.1022C16.6293 27.1401 11.2994 19.5854 11.2994 14.062C11.2994 6.57836 16.7359 -0.441768 27.2891 0.0217445C36.9895 -0.263601 43.7052 6.30778 43.7052 14.062Z" fill="url(#paint9_linear_235_3600)"/>
<path d="M15.526 18.6325C12.3941 16.16 12.418 10.6601 14.6594 7.50303C17.4195 3.98654 22.3894 3.42567 25.5212 5.89808C26.2529 6.47566 26.8244 7.10083 27.252 7.76146C27.6796 7.10083 28.251 6.47566 28.9826 5.89808C32.1145 3.42567 37.0844 3.98654 39.8445 7.50303C42.086 10.6601 42.1098 16.16 38.978 18.6325C35.5122 21.5918 31.5886 19.799 28.8881 16.093C28.5732 15.5963 27.2891 15.6653 27.2891 15.6653C27.2891 15.6653 26.0406 15.5963 25.7257 16.093C23.5227 19.7277 18.9917 21.5918 15.526 18.6325Z" fill="#212427"/>
<path d="M28.4262 17.554C28.4262 18.2182 27.8853 18.1954 27.2181 18.1954C26.5508 18.1954 26.0099 18.2182 26.0099 17.554C26.0099 16.8898 27.2181 16.2712 27.2181 16.2712C27.2181 16.2712 28.4262 16.8898 28.4262 17.554Z" fill="#17161B"/>
<path d="M20.6801 18.1954C23.1527 18.1954 25.1572 16.1851 25.1572 13.7054C25.1572 11.2256 23.1527 9.21533 20.6801 9.21533C18.2074 9.21533 16.2029 11.2256 16.2029 13.7054C16.2029 16.1851 18.2074 18.1954 20.6801 18.1954Z" fill="#D9D9D9" fill-opacity="0.5"/>
<path d="M26.0455 15.1665C24.9084 18.053 21.2519 20.472 18.2512 19.4465C14.7816 18.4093 13.6289 14.7102 14.7816 11.3179C16.274 8.03949 18.8679 5.94623 22.4254 7.16201C25.4261 8.18752 27.1982 11.7742 26.0455 15.1665Z" fill="#F1F1F1"/>
<path d="M39.3541 9.27776C41.1449 11.8092 41.0885 16.2732 38.4913 18.3236C35.614 20.7739 31.8159 19.7908 29.6056 16.9747C27.6873 13.9254 27.4078 10.5566 30.4869 8.12582C33.0842 6.07545 37.1438 6.4617 39.3541 9.27776Z" fill="#F1F1F1"/>
<path d="M33.8272 18.1954C36.2998 18.1954 38.3043 16.1851 38.3043 13.7054C38.3043 11.2256 36.2998 9.21533 33.8272 9.21533C31.3545 9.21533 29.35 11.2256 29.35 13.7054C29.35 16.1851 31.3545 18.1954 33.8272 18.1954Z" fill="#2F3640"/>
<path d="M20.6801 18.1954C23.1527 18.1954 25.1572 16.1851 25.1572 13.7054C25.1572 11.2256 23.1527 9.21533 20.6801 9.21533C18.2074 9.21533 16.2029 11.2256 16.2029 13.7054C16.2029 16.1851 18.2074 18.1954 20.6801 18.1954Z" fill="#2F3640"/>
<path d="M30.4871 21.474C30.4871 21.6707 29.0076 22.935 27.1825 22.935C25.3575 22.935 23.878 21.6707 23.878 21.474C23.878 21.2771 25.3575 22.5074 27.1825 22.5074C29.0076 22.5074 30.4871 21.2771 30.4871 21.474Z" fill="#050505"/>
<path d="M32.6901 12.4939C33.4358 12.4939 34.0403 11.8876 34.0403 11.1398C34.0403 10.3919 33.4358 9.78564 32.6901 9.78564C31.9444 9.78564 31.3398 10.3919 31.3398 11.1398C31.3398 11.8876 31.9444 12.4939 32.6901 12.4939Z" fill="#F1F1F1"/>
<path d="M21.8881 12.4939C22.6339 12.4939 23.2384 11.8876 23.2384 11.1398C23.2384 10.3919 22.6339 9.78564 21.8881 9.78564C21.1424 9.78564 20.5379 10.3919 20.5379 11.1398C20.5379 11.8876 21.1424 12.4939 21.8881 12.4939Z" fill="#F1F1F1"/>
</g>
<defs>
<linearGradient id="paint0_linear_235_3600" x1="55.8308" y1="0.768067" x2="33.8897" y2="3.0111" gradientUnits="userSpaceOnUse">
<stop stop-color="#19FB9B"/>
<stop offset="1" stop-color="#8C01FA"/>
</linearGradient>
<linearGradient id="paint1_linear_235_3600" x1="45.2153" y1="0.768066" x2="45.2153" y2="26.0343" gradientUnits="userSpaceOnUse">
<stop stop-color="#010102"/>
<stop offset="1" stop-color="#48484C"/>
</linearGradient>
<linearGradient id="paint2_linear_235_3600" x1="19.8084" y1="0.768067" x2="-2.13277" y2="3.0111" gradientUnits="userSpaceOnUse">
<stop stop-color="#19FB9B"/>
<stop offset="1" stop-color="#8C01FA"/>
</linearGradient>
<linearGradient id="paint3_linear_235_3600" x1="9.19286" y1="0.768066" x2="9.19286" y2="26.0343" gradientUnits="userSpaceOnUse">
<stop stop-color="#010102"/>
<stop offset="1" stop-color="#48484C"/>
</linearGradient>
<linearGradient id="paint4_linear_235_3600" x1="27.3543" y1="25.2297" x2="27.3543" y2="44.5554" gradientUnits="userSpaceOnUse">
<stop stop-color="#2F2F33"/>
<stop offset="1" stop-color="#8F8F99"/>
</linearGradient>
<linearGradient id="paint5_linear_235_3600" x1="27.3247" y1="26.3376" x2="27.3247" y2="40.3066" gradientUnits="userSpaceOnUse">
<stop stop-color="#D9D9D9"/>
<stop offset="1" stop-color="#777777"/>
</linearGradient>
<linearGradient id="paint6_linear_235_3600" x1="2.22249" y1="0" x2="2.22249" y2="4.55007" gradientUnits="userSpaceOnUse">
<stop stop-color="#D9D9D9"/>
<stop offset="1" stop-color="#EEF5FF"/>
</linearGradient>
<linearGradient id="paint7_linear_235_3600" x1="37.0014" y1="33.7219" x2="37.0014" y2="43.254" gradientUnits="userSpaceOnUse">
<stop stop-color="#2F2F33"/>
<stop offset="1" stop-color="#8F8F99"/>
</linearGradient>
<linearGradient id="paint8_linear_235_3600" x1="17.7443" y1="33.7219" x2="17.7443" y2="43.254" gradientUnits="userSpaceOnUse">
<stop stop-color="#2F2F33"/>
<stop offset="1" stop-color="#8F8F99"/>
</linearGradient>
<linearGradient id="paint9_linear_235_3600" x1="27.5023" y1="0" x2="27.5023" y2="28.1593" gradientUnits="userSpaceOnUse">
<stop stop-color="#010102"/>
<stop offset="1" stop-color="#48484C"/>
</linearGradient>
<clipPath id="clip0_235_3600">
<rect width="54.2229" height="44.6152" fill="white"/>
</clipPath>
</defs>
</svg>
